<svg style="display: none;"><symbol viewBox="0 0 16 16" id="icon-accessibility"><title>accessibility</title> <path d="M6.5 1.5c0-0.828 0.672-1.5 1.5-1.5s1.5 0.672 1.5 1.5c0 0.828-0.672 1.5-1.5 1.5s-1.5-0.672-1.5-1.5z"/> <path d="M10 5l5.15-2.221-0.371-0.929-6.279 2.15h-1l-6.279-2.15-0.371 0.929 5.15 2.221v4l-2.051 6.634 0.935 0.355 2.902-6.489h0.429l2.902 6.489 0.935-0.355-2.051-6.634z"/> </symbol><symbol viewBox="0 0 15 14" id="icon-ambulance"><title>ambulance</title> <path d="M5 11q0-0.414-0.293-0.707t-0.707-0.293-0.707 0.293-0.293 0.707 0.293 0.707 0.707 0.293 0.707-0.293 0.293-0.707zM2 7h3v-2h-1.234q-0.109 0.016-0.172 0.070l-1.523 1.523q-0.055 0.094-0.070 0.172v0.234zM12 11q0-0.414-0.293-0.707t-0.707-0.293-0.707 0.293-0.293 0.707 0.293 0.707 0.707 0.293 0.707-0.293 0.293-0.707zM13 5.75v-1.5q0-0.109-0.070-0.18t-0.18-0.070h-1.75v-1.75q0-0.109-0.070-0.18t-0.18-0.070h-1.5q-0.109 0-0.18 0.070t-0.070 0.18v1.75h-1.75q-0.109 0-0.18 0.070t-0.070 0.18v1.5q0 0.109 0.070 0.18t0.18 0.070h1.75v1.75q0 0.109 0.070 0.18t0.18 0.070h1.5q0.109 0 0.18-0.070t0.070-0.18v-1.75h1.75q0.109 0 0.18-0.070t0.070-0.18zM15 1.5v9q0 0.203-0.148 0.352t-0.352 0.148h-1.5q0 0.828-0.586 1.414t-1.414 0.586-1.414-0.586-0.586-1.414h-3q0 0.828-0.586 1.414t-1.414 0.586-1.414-0.586-0.586-1.414h-1q-0.203 0-0.352-0.148t-0.148-0.352 0.148-0.352 0.352-0.148v-3.25q0-0.203 0.102-0.453t0.25-0.398l1.547-1.547q0.148-0.148 0.398-0.25t0.453-0.102h1.25v-2.5q0-0.203 0.148-0.352t0.352-0.148h9q0.203 0 0.352 0.148t0.148 0.352z"/> </symbol><symbol viewBox="0 0 16 14" id="icon-bed"><title>bed</title> <path d="M2 8h13.5q0.203 0 0.352 0.148t0.148 0.352v3.5h-2v-2h-12v2h-2v-9.5q0-0.203 0.148-0.352t0.352-0.148h1q0.203 0 0.352 0.148t0.148 0.352v5.5zM6.5 5.5q0-0.828-0.586-1.414t-1.414-0.586-1.414 0.586-0.586 1.414 0.586 1.414 1.414 0.586 1.414-0.586 0.586-1.414zM16 7.5v-0.5q0-1.242-0.879-2.121t-2.121-0.879h-5.5q-0.203 0-0.352 0.148t-0.148 0.352v3h9z"/> </symbol><symbol viewBox="0 0 16 16" id="icon-bell"><title>bell</title> <path d="M16.023 12.5c0-4.5-4-3.5-4-7 0-0.29-0.028-0.538-0.079-0.749-0.263-1.766-1.44-3.183-2.965-3.615 0.014-0.062 0.021-0.125 0.021-0.191 0-0.52-0.45-0.945-1-0.945s-1 0.425-1 0.945c0 0.065 0.007 0.129 0.021 0.191-1.71 0.484-2.983 2.208-3.020 4.273-0.001 0.030-0.001 0.060-0.001 0.091 0 3.5-4 2.5-4 7 0 1.191 2.665 2.187 6.234 2.439 0.336 0.631 1.001 1.061 1.766 1.061s1.43-0.43 1.766-1.061c3.568-0.251 6.234-1.248 6.234-2.439 0-0.004-0-0.007-0-0.011l0.024 0.011zM12.91 13.345c-0.847 0.226-1.846 0.389-2.918 0.479-0.089-1.022-0.947-1.824-1.992-1.824s-1.903 0.802-1.992 1.824c-1.072-0.090-2.071-0.253-2.918-0.479-1.166-0.311-1.724-0.659-1.928-0.845 0.204-0.186 0.762-0.534 1.928-0.845 1.356-0.362 3.1-0.561 4.91-0.561s3.554 0.199 4.91 0.561c1.166 0.311 1.724 0.659 1.928 0.845-0.204 0.186-0.762 0.534-1.928 0.845z"/> </symbol><symbol viewBox="0 0 7 14" id="icon-bolt"><title>bolt</title> <path d="M6.914 4.422q0.141 0.156 0.055 0.344l-4.219 9.039q-0.102 0.195-0.328 0.195-0.031 0-0.109-0.016-0.133-0.039-0.199-0.148t-0.035-0.234l1.539-6.312-3.172 0.789q-0.031 0.008-0.094 0.008-0.141 0-0.242-0.086-0.141-0.117-0.102-0.305l1.57-6.445q0.031-0.109 0.125-0.18t0.219-0.070h2.563q0.148 0 0.25 0.098t0.102 0.23q0 0.062-0.039 0.141l-1.336 3.617 3.094-0.766q0.062-0.016 0.094-0.016 0.148 0 0.266 0.117z"/> </symbol><symbol viewBox="0 0 16 16" id="icon-bookmark"><title>bookmark</title> <path d="M3 0v16l5-5 5 5v-16z"/> </symbol><symbol viewBox="0 0 16 16" id="icon-bookmarks"><title>bookmarks</title> <path d="M4 2v14l5-5 5 5v-14zM12 0h-10v14l1-1v-12h9z"/> </symbol><symbol viewBox="0 0 14 14" id="icon-briefcase"><title>briefcase</title> <path d="M5 2h4v-1h-4v1zM14 7v3.75q0 0.516-0.367 0.883t-0.883 0.367h-11.5q-0.516 0-0.883-0.367t-0.367-0.883v-3.75h5.25v1.25q0 0.203 0.148 0.352t0.352 0.148h2.5q0.203 0 0.352-0.148t0.148-0.352v-1.25h5.25zM8 7v1h-2v-1h2zM14 3.25v3h-14v-3q0-0.516 0.367-0.883t0.883-0.367h2.75v-1.25q0-0.312 0.219-0.531t0.531-0.219h4.5q0.312 0 0.531 0.219t0.219 0.531v1.25h2.75q0.516 0 0.883 0.367t0.367 0.883z"/> </symbol><symbol viewBox="0 0 16 16" id="icon-bubble"><title>bubble</title> <path d="M8 1c4.418 0 8 2.91 8 6.5s-3.582 6.5-8 6.5c-0.424 0-0.841-0.027-1.247-0.079-1.718 1.718-3.77 2.027-5.753 2.072v-0.421c1.071-0.525 2-1.48 2-2.572 0-0.152-0.012-0.302-0.034-0.448-1.809-1.192-2.966-3.012-2.966-5.052 0-3.59 3.582-6.5 8-6.5z"/> </symbol><symbol viewBox="0 0 16 16" id="icon-bubble2"><title>bubble2</title> <path d="M8 3c-0.858 0-1.687 0.135-2.464 0.402-0.73 0.251-1.38 0.605-1.932 1.054-1.035 0.841-1.604 1.922-1.604 3.044 0 0.63 0.175 1.24 0.52 1.815 0.356 0.592 0.89 1.134 1.547 1.566 0.474 0.312 0.793 0.812 0.878 1.373 0.028 0.187 0.046 0.376 0.053 0.564 0.117-0.097 0.23-0.201 0.342-0.312 0.377-0.377 0.887-0.586 1.414-0.586 0.084 0 0.168 0.005 0.252 0.016 0.328 0.042 0.662 0.063 0.995 0.063 0.858 0 1.687-0.135 2.464-0.402 0.73-0.251 1.38-0.605 1.932-1.054 1.035-0.841 1.604-1.922 1.604-3.044s-0.57-2.203-1.604-3.044c-0.552-0.448-1.202-0.803-1.932-1.054-0.777-0.267-1.606-0.402-2.464-0.402zM8 1v0c4.418 0 8 2.91 8 6.5s-3.582 6.5-8 6.5c-0.424 0-0.841-0.027-1.247-0.079-1.718 1.718-3.77 2.027-5.753 2.072v-0.421c1.071-0.525 2-1.48 2-2.572 0-0.152-0.012-0.302-0.034-0.448-1.809-1.192-2.966-3.012-2.966-5.052 0-3.59 3.582-6.5 8-6.5z"/> </symbol><symbol viewBox="0 0 18 16" id="icon-bubbles"><title>bubbles</title> <path d="M17 14.081c0 0.711 0.407 1.327 1 1.628v0.249c-0.166 0.023-0.335 0.035-0.508 0.035-1.063 0-2.021-0.446-2.699-1.16-0.41 0.109-0.844 0.168-1.293 0.168-2.485 0-4.5-1.791-4.5-4s2.015-4 4.5-4c2.485 0 4.5 1.791 4.5 4 0 0.865-0.309 1.665-0.834 2.32-0.107 0.232-0.166 0.489-0.166 0.761zM8 0c4.351 0 7.89 2.822 7.997 6.336-0.768-0.343-1.619-0.524-2.497-0.524-1.493 0-2.903 0.523-3.971 1.472-1.107 0.984-1.717 2.304-1.717 3.716 0 0.698 0.149 1.373 0.433 1.997-0.082 0.002-0.164 0.003-0.246 0.003-0.424 0-0.841-0.027-1.247-0.079-1.718 1.718-3.77 2.027-5.753 2.072v-0.421c1.071-0.525 2-1.48 2-2.572 0-0.152-0.012-0.302-0.034-0.448-1.809-1.192-2.966-3.012-2.966-5.052 0-3.59 3.582-6.5 8-6.5z"/> </symbol><symbol viewBox="0 0 18 16" id="icon-bubbles2"><title>bubbles2</title> <path d="M7.5 0v0c4.142 0 7.5 2.717 7.5 6.069s-3.358 6.069-7.5 6.069c-0.398 0-0.788-0.025-1.169-0.074-1.611 1.605-3.471 1.892-5.331 1.935v-0.393c1.004-0.49 1.813-1.382 1.813-2.402 0-0.142-0.011-0.282-0.032-0.419-1.696-1.113-2.781-2.812-2.781-4.717 0-3.352 3.358-6.069 7.5-6.069zM15.563 13.604c0 0.874 0.567 1.639 1.438 2.059v0.337c-1.611-0.036-3.090-0.283-4.487-1.658-0.33 0.041-0.669 0.063-1.013 0.063-1.492 0-2.866-0.402-3.963-1.079 2.261-0.008 4.395-0.732 6.013-2.042 0.816-0.66 1.459-1.435 1.913-2.302 0.481-0.92 0.724-1.9 0.724-2.913 0-0.163-0.007-0.326-0.020-0.487 1.134 0.936 1.832 2.213 1.832 3.62 0 1.633-0.94 3.089-2.41 4.043-0.018 0.117-0.027 0.237-0.027 0.359z"/> </symbol><symbol viewBox="0 0 18 16" id="icon-bubbles3"><title>bubbles3</title> <path d="M17 14.081c0 0.711 0.407 1.327 1 1.628v0.249c-0.166 0.023-0.335 0.035-0.508 0.035-1.063 0-2.021-0.446-2.699-1.16-0.41 0.109-0.844 0.168-1.293 0.168-2.485 0-4.5-1.791-4.5-4s2.015-4 4.5-4c2.485 0 4.5 1.791 4.5 4 0 0.865-0.309 1.665-0.834 2.32-0.107 0.232-0.166 0.489-0.166 0.761zM3.604 3.456c-1.035 0.841-1.604 1.922-1.604 3.044 0 0.63 0.175 1.24 0.52 1.815 0.356 0.592 0.89 1.134 1.547 1.566 0.474 0.312 0.793 0.812 0.878 1.373 0.028 0.187 0.046 0.376 0.053 0.564 0.117-0.097 0.23-0.201 0.342-0.312 0.377-0.377 0.887-0.586 1.414-0.586 0.084 0 0.168 0.005 0.252 0.016 0.327 0.042 0.662 0.063 0.994 0.063v2c-0.424-0-0.84-0.027-1.246-0.079-1.718 1.718-3.77 2.027-5.753 2.072v-0.421c1.071-0.525 2-1.48 2-2.572 0-0.152-0.012-0.302-0.034-0.448-1.809-1.192-2.966-3.012-2.966-5.052 0-3.59 3.582-6.5 8-6.5 4.351 0 7.89 2.822 7.997 6.336-0.642-0.286-1.341-0.46-2.067-0.509-0.18-0.876-0.709-1.7-1.535-2.371-0.552-0.448-1.202-0.803-1.932-1.054-0.777-0.267-1.606-0.402-2.464-0.402s-1.687 0.135-2.464 0.402c-0.73 0.251-1.38 0.605-1.932 1.054z"/> </symbol><symbol viewBox="0 0 18 16" id="icon-bubbles4"><title>bubbles4</title> <path d="M7.5 2c-0.792 0-1.556 0.124-2.272 0.369-0.671 0.23-1.267 0.554-1.773 0.963-0.938 0.759-1.455 1.731-1.455 2.737 0 0.562 0.157 1.109 0.467 1.623 0.323 0.537 0.811 1.028 1.41 1.421 0.476 0.312 0.796 0.812 0.881 1.374 0.014 0.094 0.025 0.188 0.034 0.282 0.043-0.039 0.085-0.080 0.127-0.122 0.377-0.376 0.886-0.583 1.411-0.583 0.084 0 0.167 0.005 0.251 0.016 0.303 0.038 0.611 0.058 0.918 0.058 0.792 0 1.556-0.124 2.272-0.369 0.671-0.23 1.267-0.554 1.774-0.963 0.938-0.759 1.455-1.731 1.455-2.737s-0.517-1.978-1.455-2.737c-0.506-0.41-1.103-0.734-1.774-0.963-0.716-0.245-1.48-0.369-2.272-0.369zM7.5 0v0c4.142 0 7.5 2.717 7.5 6.069s-3.358 6.069-7.5 6.069c-0.398 0-0.788-0.025-1.169-0.074-1.611 1.605-3.471 1.892-5.331 1.935v-0.393c1.004-0.49 1.813-1.382 1.813-2.402 0-0.142-0.011-0.282-0.032-0.419-1.696-1.113-2.781-2.812-2.781-4.717 0-3.352 3.358-6.069 7.5-6.069zM15.563 13.604c0 0.874 0.567 1.639 1.438 2.059v0.337c-1.611-0.036-3.090-0.283-4.487-1.658-0.33 0.041-0.669 0.063-1.013 0.063-1.492 0-2.866-0.402-3.963-1.079 2.261-0.008 4.395-0.732 6.013-2.042 0.816-0.66 1.459-1.435 1.913-2.302 0.481-0.92 0.724-1.9 0.724-2.913 0-0.163-0.007-0.326-0.020-0.487 1.134 0.936 1.832 2.213 1.832 3.62 0 1.633-0.94 3.089-2.41 4.043-0.018 0.117-0.027 0.237-0.027 0.359z"/> </symbol><symbol viewBox="0 0 16 16" id="icon-calendar copy"><title>calendar copy</title> <path d="M5 6h2v2h-2zM8 6h2v2h-2zM11 6h2v2h-2zM2 12h2v2h-2zM5 12h2v2h-2zM8 12h2v2h-2zM5 9h2v2h-2zM8 9h2v2h-2zM11 9h2v2h-2zM2 9h2v2h-2zM13 0v1h-2v-1h-7v1h-2v-1h-2v16h15v-16h-2zM14 15h-13v-11h13v11z"/> </symbol><symbol viewBox="0 0 13 14" id="icon-calendar"><title>calendar</title> <path d="M1 13h2.25v-2.25h-2.25v2.25zM3.75 13h2.5v-2.25h-2.5v2.25zM1 10.25h2.25v-2.5h-2.25v2.5zM3.75 10.25h2.5v-2.5h-2.5v2.5zM1 7.25h2.25v-2.25h-2.25v2.25zM6.75 13h2.5v-2.25h-2.5v2.25zM3.75 7.25h2.5v-2.25h-2.5v2.25zM9.75 13h2.25v-2.25h-2.25v2.25zM6.75 10.25h2.5v-2.5h-2.5v2.5zM4 3.5v-2.25q0-0.102-0.074-0.176t-0.176-0.074h-0.5q-0.102 0-0.176 0.074t-0.074 0.176v2.25q0 0.102 0.074 0.176t0.176 0.074h0.5q0.102 0 0.176-0.074t0.074-0.176zM9.75 10.25h2.25v-2.5h-2.25v2.5zM6.75 7.25h2.5v-2.25h-2.5v2.25zM9.75 7.25h2.25v-2.25h-2.25v2.25zM10 3.5v-2.25q0-0.102-0.074-0.176t-0.176-0.074h-0.5q-0.102 0-0.176 0.074t-0.074 0.176v2.25q0 0.102 0.074 0.176t0.176 0.074h0.5q0.102 0 0.176-0.074t0.074-0.176zM13 3v10q0 0.406-0.297 0.703t-0.703 0.297h-11q-0.406 0-0.703-0.297t-0.297-0.703v-10q0-0.406 0.297-0.703t0.703-0.297h1v-0.75q0-0.516 0.367-0.883t0.883-0.367h0.5q0.516 0 0.883 0.367t0.367 0.883v0.75h3v-0.75q0-0.516 0.367-0.883t0.883-0.367h0.5q0.516 0 0.883 0.367t0.367 0.883v0.75h1q0.406 0 0.703 0.297t0.297 0.703z"/> </symbol><symbol viewBox="0 0 13 14" id="icon-chain"><title>chain</title> <path d="M11.375 9.5q0-0.312-0.219-0.531l-1.625-1.625q-0.219-0.219-0.531-0.219-0.328 0-0.563 0.25 0.023 0.023 0.148 0.145t0.168 0.168 0.117 0.148 0.102 0.199 0.027 0.215q0 0.312-0.219 0.531t-0.531 0.219q-0.117 0-0.215-0.027t-0.199-0.102-0.148-0.117-0.168-0.168-0.145-0.148q-0.258 0.242-0.258 0.57 0 0.312 0.219 0.531l1.609 1.617q0.211 0.211 0.531 0.211 0.312 0 0.531-0.203l1.148-1.141q0.219-0.219 0.219-0.523zM5.883 3.992q0-0.312-0.219-0.531l-1.609-1.617q-0.219-0.219-0.531-0.219-0.305 0-0.531 0.211l-1.148 1.141q-0.219 0.219-0.219 0.523 0 0.312 0.219 0.531l1.625 1.625q0.211 0.211 0.531 0.211 0.328 0 0.563-0.242-0.023-0.023-0.148-0.145t-0.168-0.168-0.117-0.148-0.102-0.199-0.027-0.215q0-0.312 0.219-0.531t0.531-0.219q0.117 0 0.215 0.027t0.199 0.102 0.148 0.117 0.168 0.168 0.145 0.148q0.258-0.242 0.258-0.57zM12.875 9.5q0 0.937-0.664 1.586l-1.148 1.141q-0.648 0.648-1.586 0.648-0.945 0-1.594-0.664l-1.609-1.617q-0.648-0.648-0.648-1.586 0-0.961 0.688-1.633l-0.688-0.688q-0.672 0.688-1.625 0.688-0.937 0-1.594-0.656l-1.625-1.625q-0.656-0.656-0.656-1.594t0.664-1.586l1.148-1.141q0.648-0.648 1.586-0.648 0.945 0 1.594 0.664l1.609 1.617q0.648 0.648 0.648 1.586 0 0.961-0.688 1.633l0.688 0.688q0.672-0.688 1.625-0.688 0.937 0 1.594 0.656l1.625 1.625q0.656 0.656 0.656 1.594z"/> </symbol><symbol viewBox="0 0 10 14" id="icon-chevron-left"><title>chevron-left</title> <path d="M9.148 2.352l-4.148 4.148 4.148 4.148q0.148 0.148 0.148 0.352t-0.148 0.352l-1.297 1.297q-0.148 0.148-0.352 0.148t-0.352-0.148l-5.797-5.797q-0.148-0.148-0.148-0.352t0.148-0.352l5.797-5.797q0.148-0.148 0.352-0.148t0.352 0.148l1.297 1.297q0.148 0.148 0.148 0.352t-0.148 0.352z"/> </symbol><symbol viewBox="0 0 10 14" id="icon-chevron-right"><title>chevron-right</title> <path d="M8.648 6.852l-5.797 5.797q-0.148 0.148-0.352 0.148t-0.352-0.148l-1.297-1.297q-0.148-0.148-0.148-0.352t0.148-0.352l4.148-4.148-4.148-4.148q-0.148-0.148-0.148-0.352t0.148-0.352l1.297-1.297q0.148-0.148 0.352-0.148t0.352 0.148l5.797 5.797q0.148 0.148 0.148 0.352t-0.148 0.352z"/> </symbol><symbol viewBox="0 0 16 16" id="icon-clipboard"><title>clipboard</title> <path d="M14.5 2h-4.5c0-1.105-0.895-2-2-2s-2 0.895-2 2h-4.5c-0.276 0-0.5 0.224-0.5 0.5v13c0 0.276 0.224 0.5 0.5 0.5h13c0.276 0 0.5-0.224 0.5-0.5v-13c0-0.276-0.224-0.5-0.5-0.5zM8 1c0.552 0 1 0.448 1 1s-0.448 1-1 1c-0.552 0-1-0.448-1-1s0.448-1 1-1zM14 15h-12v-12h2v1.5c0 0.276 0.224 0.5 0.5 0.5h7c0.276 0 0.5-0.224 0.5-0.5v-1.5h2v12z"/> <path d="M7 13.414l-3.207-3.707 0.914-0.914 2.293 1.793 4.293-3.793 0.914 0.914z"/> </symbol><symbol viewBox="0 0 12 14" id="icon-clock-o"><title>clock-o</title> <path d="M7 4.25v3.5q0 0.109-0.070 0.18t-0.18 0.070h-2.5q-0.109 0-0.18-0.070t-0.070-0.18v-0.5q0-0.109 0.070-0.18t0.18-0.070h1.75v-2.75q0-0.109 0.070-0.18t0.18-0.070h0.5q0.109 0 0.18 0.070t0.070 0.18zM10.25 7q0-1.156-0.57-2.133t-1.547-1.547-2.133-0.57-2.133 0.57-1.547 1.547-0.57 2.133 0.57 2.133 1.547 1.547 2.133 0.57 2.133-0.57 1.547-1.547 0.57-2.133zM12 7q0 1.633-0.805 3.012t-2.184 2.184-3.012 0.805-3.012-0.805-2.184-2.184-0.805-3.012 0.805-3.012 2.184-2.184 3.012-0.805 3.012 0.805 2.184 2.184 0.805 3.012z"/> </symbol><symbol viewBox="0 0 16 16" id="icon-clock"><title>clock</title> <path d="M10.293 11.707l-3.293-3.293v-4.414h2v3.586l2.707 2.707zM8 0c-4.418 0-8 3.582-8 8s3.582 8 8 8 8-3.582 8-8-3.582-8-8-8zM8 14c-3.314 0-6-2.686-6-6s2.686-6 6-6c3.314 0 6 2.686 6 6s-2.686 6-6 6z"/> </symbol><symbol viewBox="0 0 16 16" id="icon-clock2"><title>clock2</title> <path d="M8 0c-4.418 0-8 3.582-8 8s3.582 8 8 8 8-3.582 8-8-3.582-8-8-8zM10.293 11.707l-3.293-3.293v-4.414h2v3.586l2.707 2.707-1.414 1.414z"/> </symbol><symbol viewBox="0 0 16 16" id="icon-coin-dollar"><title>coin-dollar</title> <path d="M7.5 1c-4.142 0-7.5 3.358-7.5 7.5s3.358 7.5 7.5 7.5c4.142 0 7.5-3.358 7.5-7.5s-3.358-7.5-7.5-7.5zM7.5 14.5c-3.314 0-6-2.686-6-6s2.686-6 6-6c3.314 0 6 2.686 6 6s-2.686 6-6 6zM8 8v-2h2v-1h-2v-1h-1v1h-2v4h2v2h-2v1h2v1h1v-1h2l-0-4h-2zM7 8h-1v-2h1v2zM9 11h-1v-2h1v2z"/> </symbol><symbol viewBox="0 0 14 14" id="icon-commenting-o"><title>commenting-o</title> <path d="M5 7q0 0.414-0.293 0.707t-0.707 0.293-0.707-0.293-0.293-0.707 0.293-0.707 0.707-0.293 0.707 0.293 0.293 0.707zM8 7q0 0.414-0.293 0.707t-0.707 0.293-0.707-0.293-0.293-0.707 0.293-0.707 0.707-0.293 0.707 0.293 0.293 0.707zM11 7q0 0.414-0.293 0.707t-0.707 0.293-0.707-0.293-0.293-0.707 0.293-0.707 0.707-0.293 0.707 0.293 0.293 0.707zM7 3q-1.594 0-2.98 0.543t-2.203 1.465-0.816 1.992q0 0.875 0.559 1.668t1.574 1.371l0.68 0.391-0.211 0.75q-0.187 0.711-0.547 1.344 1.187-0.492 2.148-1.336l0.336-0.297 0.445 0.047q0.539 0.062 1.016 0.062 1.594 0 2.98-0.543t2.203-1.465 0.816-1.992-0.816-1.992-2.203-1.465-2.98-0.543zM14 7q0 1.359-0.937 2.512t-2.547 1.82-3.516 0.668q-0.547 0-1.133-0.062-1.547 1.367-3.594 1.891-0.383 0.109-0.891 0.172h-0.039q-0.117 0-0.211-0.082t-0.125-0.215v-0.008q-0.023-0.031-0.004-0.094t0.016-0.078 0.035-0.074l0.047-0.070t0.055-0.066 0.062-0.070q0.055-0.062 0.242-0.27t0.27-0.297 0.242-0.309 0.254-0.398 0.211-0.461 0.203-0.594q-1.227-0.695-1.934-1.719t-0.707-2.195q0-1.016 0.555-1.941t1.492-1.598 2.234-1.066 2.719-0.395 2.719 0.395 2.234 1.066 1.492 1.598 0.555 1.941z"/> </symbol><symbol viewBox="0 0 14 14" id="icon-commenting"><title>commenting</title> <path d="M5 7q0-0.414-0.293-0.707t-0.707-0.293-0.707 0.293-0.293 0.707 0.293 0.707 0.707 0.293 0.707-0.293 0.293-0.707zM8 7q0-0.414-0.293-0.707t-0.707-0.293-0.707 0.293-0.293 0.707 0.293 0.707 0.707 0.293 0.707-0.293 0.293-0.707zM11 7q0-0.414-0.293-0.707t-0.707-0.293-0.707 0.293-0.293 0.707 0.293 0.707 0.707 0.293 0.707-0.293 0.293-0.707zM14 7q0 1.359-0.937 2.512t-2.547 1.82-3.516 0.668q-0.859 0-1.648-0.141-1.352 1.352-3.398 1.789-0.406 0.078-0.672 0.102-0.094 0.008-0.172-0.047t-0.102-0.141q-0.031-0.117 0.156-0.289 0.039-0.039 0.184-0.168t0.199-0.184 0.184-0.199 0.187-0.246 0.16-0.289 0.156-0.375 0.113-0.449 0.098-0.566q-1.141-0.703-1.793-1.691t-0.652-2.105q0-1.359 0.937-2.512t2.547-1.82 3.516-0.668 3.516 0.668 2.547 1.82 0.937 2.512z"/> </symbol><symbol viewBox="0 0 14 14" id="icon-comments"><title>comments</title> <path d="M11 6q0 1.086-0.734 2.008t-2.004 1.457-2.762 0.535q-0.672 0-1.375-0.125-0.969 0.688-2.172 1-0.281 0.070-0.672 0.125h-0.023q-0.086 0-0.16-0.062t-0.090-0.164q-0.008-0.023-0.008-0.051t0.004-0.051 0.016-0.047l0.020-0.039t0.027-0.043 0.031-0.039 0.035-0.039 0.031-0.035q0.039-0.047 0.18-0.195t0.203-0.23 0.176-0.227 0.195-0.301 0.16-0.344q-0.969-0.563-1.523-1.383t-0.555-1.75q0-1.086 0.734-2.008t2.004-1.457 2.762-0.535 2.762 0.535 2.004 1.457 0.734 2.008zM14 8q0 0.937-0.555 1.754t-1.523 1.379q0.078 0.187 0.16 0.344t0.195 0.301 0.176 0.227 0.203 0.23 0.18 0.195q0.008 0.008 0.031 0.035t0.035 0.039 0.031 0.039 0.027 0.043l0.020 0.039t0.016 0.047 0.004 0.051-0.008 0.051q-0.023 0.109-0.102 0.172t-0.172 0.055q-0.391-0.055-0.672-0.125-1.203-0.312-2.172-1-0.703 0.125-1.375 0.125-2.117 0-3.687-1.031 0.453 0.031 0.688 0.031 1.258 0 2.414-0.352t2.062-1.008q0.977-0.719 1.5-1.656t0.523-1.984q0-0.602-0.18-1.187 1.008 0.555 1.594 1.391t0.586 1.797z"/> </symbol><symbol viewBox="0 0 16 16" id="icon-credit-card"><title>credit-card</title> <path d="M14.5 2h-13c-0.825 0-1.5 0.675-1.5 1.5v9c0 0.825 0.675 1.5 1.5 1.5h13c0.825 0 1.5-0.675 1.5-1.5v-9c0-0.825-0.675-1.5-1.5-1.5zM1.5 3h13c0.271 0 0.5 0.229 0.5 0.5v1.5h-14v-1.5c0-0.271 0.229-0.5 0.5-0.5zM14.5 13h-13c-0.271 0-0.5-0.229-0.5-0.5v-4.5h14v4.5c0 0.271-0.229 0.5-0.5 0.5zM2 10h1v2h-1zM4 10h1v2h-1zM6 10h1v2h-1z"/> </symbol><symbol viewBox="0 0 16 14" id="icon-diamond"><title>diamond</title> <path d="M1.656 6l4.867 5.195-2.344-5.195h-2.523zM8 12.031l2.727-6.031h-5.453zM4.203 5l1.594-3h-2.047l-2.25 3h2.703zM9.477 11.195l4.867-5.195h-2.523zM5.336 5h5.328l-1.594-3h-2.141zM11.797 5h2.703l-2.25-3h-2.047zM12.898 1.203l3 4q0.109 0.141 0.102 0.324t-0.133 0.316l-7.5 8q-0.141 0.156-0.367 0.156t-0.367-0.156l-7.5-8q-0.125-0.133-0.133-0.316t0.102-0.324l3-4q0.141-0.203 0.398-0.203h9q0.258 0 0.398 0.203z"/> </symbol><symbol viewBox="0 0 16 16" id="icon-earth"><title>earth</title> <path d="M8 0c-4.418 0-8 3.582-8 8s3.582 8 8 8 8-3.582 8-8-3.582-8-8-8zM8 15c-0.984 0-1.92-0.203-2.769-0.57l3.643-4.098c0.081-0.092 0.126-0.21 0.126-0.332v-1.5c0-0.276-0.224-0.5-0.5-0.5-1.765 0-3.628-1.835-3.646-1.854-0.094-0.094-0.221-0.146-0.354-0.146h-2c-0.276 0-0.5 0.224-0.5 0.5v3c0 0.189 0.107 0.363 0.276 0.447l1.724 0.862v2.936c-1.813-1.265-3-3.366-3-5.745 0-1.074 0.242-2.091 0.674-3h1.826c0.133 0 0.26-0.053 0.354-0.146l2-2c0.094-0.094 0.146-0.221 0.146-0.354v-1.21c0.634-0.189 1.305-0.29 2-0.29 1.1 0 2.141 0.254 3.067 0.706-0.065 0.055-0.128 0.112-0.188 0.172-0.567 0.567-0.879 1.32-0.879 2.121s0.312 1.555 0.879 2.121c0.569 0.569 1.332 0.879 2.119 0.879 0.049 0 0.099-0.001 0.149-0.004 0.216 0.809 0.605 2.917-0.131 5.818-0.007 0.027-0.011 0.055-0.013 0.082-1.271 1.298-3.042 2.104-5.002 2.104z"/> </symbol><symbol viewBox="0 0 16 16" id="icon-envelop"><title>envelop</title> <path d="M14.5 2h-13c-0.825 0-1.5 0.675-1.5 1.5v10c0 0.825 0.675 1.5 1.5 1.5h13c0.825 0 1.5-0.675 1.5-1.5v-10c0-0.825-0.675-1.5-1.5-1.5zM6.23 8.6l-4.23 3.295v-7.838l4.23 4.543zM2.756 4h10.488l-5.244 3.938-5.244-3.938zM6.395 8.777l1.605 1.723 1.605-1.723 3.29 4.223h-9.79l3.29-4.223zM9.77 8.6l4.23-4.543v7.838l-4.23-3.295z"/> </symbol><symbol viewBox="0 0 14 14" id="icon-envelope-o"><title>envelope-o</title> <path d="M13 11.75v-6q-0.25 0.281-0.539 0.516-2.094 1.609-3.328 2.641-0.398 0.336-0.648 0.523t-0.676 0.379-0.801 0.191h-0.016q-0.375 0-0.801-0.191t-0.676-0.379-0.648-0.523q-1.234-1.031-3.328-2.641-0.289-0.234-0.539-0.516v6q0 0.102 0.074 0.176t0.176 0.074h11.5q0.102 0 0.176-0.074t0.074-0.176zM13 3.539v-0.191t-0.004-0.102-0.023-0.098-0.043-0.070-0.070-0.059-0.109-0.020h-11.5q-0.102 0-0.176 0.074t-0.074 0.176q0 1.312 1.148 2.219 1.508 1.187 3.133 2.477 0.047 0.039 0.273 0.23t0.359 0.293 0.348 0.246 0.395 0.215 0.336 0.070h0.016q0.156 0 0.336-0.070t0.395-0.215 0.348-0.246 0.359-0.293 0.273-0.23q1.625-1.289 3.133-2.477 0.422-0.336 0.785-0.902t0.363-1.027zM14 3.25v8.5q0 0.516-0.367 0.883t-0.883 0.367h-11.5q-0.516 0-0.883-0.367t-0.367-0.883v-8.5q0-0.516 0.367-0.883t0.883-0.367h11.5q0.516 0 0.883 0.367t0.367 0.883z"/> </symbol><symbol viewBox="0 0 14 14" id="icon-envelope"><title>envelope</title> <path d="M14 5.547v6.203q0 0.516-0.367 0.883t-0.883 0.367h-11.5q-0.516 0-0.883-0.367t-0.367-0.883v-6.203q0.344 0.383 0.789 0.68 2.828 1.922 3.883 2.695 0.445 0.328 0.723 0.512t0.738 0.375 0.859 0.191h0.016q0.398 0 0.859-0.191t0.738-0.375 0.723-0.512q1.328-0.961 3.891-2.695 0.445-0.305 0.781-0.68zM14 3.25q0 0.617-0.383 1.18t-0.953 0.961q-2.937 2.039-3.656 2.539-0.078 0.055-0.332 0.238t-0.422 0.297-0.406 0.254-0.449 0.211-0.391 0.070h-0.016q-0.18 0-0.391-0.070t-0.449-0.211-0.406-0.254-0.422-0.297-0.332-0.238q-0.711-0.5-2.047-1.426t-1.602-1.113q-0.484-0.328-0.914-0.902t-0.43-1.066q0-0.609 0.324-1.016t0.926-0.406h11.5q0.508 0 0.879 0.367t0.371 0.883z"/> </symbol><symbol viewBox="0 0 8 14" id="icon-facebook"><title>facebook</title> <path d="M7.492 0.094v2.062h-1.227q-0.672 0-0.906 0.281t-0.234 0.844v1.477h2.289l-0.305 2.313h-1.984v5.93h-2.391v-5.93h-1.992v-2.313h1.992v-1.703q0-1.453 0.813-2.254t2.164-0.801q1.148 0 1.781 0.094z"/> </symbol><symbol viewBox="0 0 11 14" id="icon-feed"><title>feed</title> <path d="M3 10.5q0 0.625-0.438 1.062t-1.062 0.438-1.062-0.438-0.438-1.062 0.438-1.062 1.062-0.438 1.062 0.438 0.438 1.062zM7 11.461q0.016 0.219-0.133 0.375-0.141 0.164-0.367 0.164h-1.055q-0.195 0-0.336-0.129t-0.156-0.324q-0.172-1.789-1.441-3.059t-3.059-1.441q-0.195-0.016-0.324-0.156t-0.129-0.336v-1.055q0-0.227 0.164-0.367 0.133-0.133 0.336-0.133h0.039q1.25 0.102 2.391 0.629t2.023 1.418q0.891 0.883 1.418 2.023t0.629 2.391zM11 11.477q0.016 0.211-0.141 0.367-0.141 0.156-0.359 0.156h-1.117q-0.203 0-0.348-0.137t-0.152-0.332q-0.094-1.68-0.789-3.191t-1.809-2.625-2.625-1.809-3.191-0.797q-0.195-0.008-0.332-0.152t-0.137-0.34v-1.117q0-0.219 0.156-0.359 0.141-0.141 0.344-0.141h0.023q2.047 0.102 3.918 0.937t3.324 2.297q1.461 1.453 2.297 3.324t0.937 3.918z"/> </symbol><symbol viewBox="0 0 16 16" id="icon-file-text2"><title>file-text2</title> <path d="M14.341 3.579c-0.347-0.473-0.831-1.027-1.362-1.558s-1.085-1.015-1.558-1.362c-0.806-0.591-1.197-0.659-1.421-0.659h-7.75c-0.689 0-1.25 0.561-1.25 1.25v13.5c0 0.689 0.561 1.25 1.25 1.25h11.5c0.689 0 1.25-0.561 1.25-1.25v-9.75c0-0.224-0.068-0.615-0.659-1.421zM12.271 2.729c0.48 0.48 0.856 0.912 1.134 1.271h-2.406v-2.405c0.359 0.278 0.792 0.654 1.271 1.134zM14 14.75c0 0.136-0.114 0.25-0.25 0.25h-11.5c-0.135 0-0.25-0.114-0.25-0.25v-13.5c0-0.135 0.115-0.25 0.25-0.25 0 0 7.749-0 7.75 0v3.5c0 0.276 0.224 0.5 0.5 0.5h3.5v9.75z"/> <path d="M11.5 13h-7c-0.276 0-0.5-0.224-0.5-0.5s0.224-0.5 0.5-0.5h7c0.276 0 0.5 0.224 0.5 0.5s-0.224 0.5-0.5 0.5z"/> <path d="M11.5 11h-7c-0.276 0-0.5-0.224-0.5-0.5s0.224-0.5 0.5-0.5h7c0.276 0 0.5 0.224 0.5 0.5s-0.224 0.5-0.5 0.5z"/> <path d="M11.5 9h-7c-0.276 0-0.5-0.224-0.5-0.5s0.224-0.5 0.5-0.5h7c0.276 0 0.5 0.224 0.5 0.5s-0.224 0.5-0.5 0.5z"/> </symbol><symbol viewBox="0 0 16 16" id="icon-flag"><title>flag</title> <path d="M0 0h2v16h-2v-16z"/> <path d="M13 10.047c1.291 0 2.415-0.312 3-0.773v-8c-0.585 0.461-1.709 0.773-3 0.773s-2.415-0.312-3-0.773v8c0.585 0.461 1.709 0.773 3 0.773z"/> <path d="M9.5 0.508c-0.733-0.312-1.805-0.508-3-0.508-1.506 0-2.818 0.312-3.5 0.773v8c0.682-0.461 1.994-0.773 3.5-0.773 1.195 0 2.267 0.197 3 0.508v-8z"/> </symbol><symbol viewBox="0 0 13 14" id="icon-flask"><title>flask</title> <path d="M11.93 11.313q0.438 0.695 0.168 1.191t-1.098 0.496h-9q-0.828 0-1.098-0.496t0.168-1.191l3.93-6.195v-3.117h-0.5q-0.203 0-0.352-0.148t-0.148-0.352 0.148-0.352 0.352-0.148h4q0.203 0 0.352 0.148t0.148 0.352-0.148 0.352-0.352 0.148h-0.5v3.117zM5.844 5.648l-2.125 3.352h5.562l-2.125-3.352-0.156-0.242v-3.406h-1v3.406z"/> </symbol><symbol viewBox="0 0 12 14" id="icon-globe"><title>globe</title> <path d="M6 1q1.633 0 3.012 0.805t2.184 2.184 0.805 3.012-0.805 3.012-2.184 2.184-3.012 0.805-3.012-0.805-2.184-2.184-0.805-3.012 0.805-3.012 2.184-2.184 3.012-0.805zM8.141 5.070q-0.016 0.008-0.074 0.074t-0.105 0.074q0.016 0 0.035-0.039t0.039-0.086 0.027-0.055q0.047-0.055 0.172-0.117 0.109-0.047 0.406-0.094 0.266-0.062 0.398 0.086-0.016-0.016 0.074-0.102t0.113-0.094q0.023-0.016 0.117-0.035t0.117-0.059l0.016-0.172q-0.094 0.008-0.137-0.055t-0.051-0.164q0 0.016-0.047 0.062 0-0.055-0.035-0.062t-0.090 0.008-0.070 0.008q-0.078-0.023-0.117-0.059t-0.062-0.129-0.031-0.117q-0.016-0.039-0.074-0.082t-0.074-0.082q-0.008-0.016-0.020-0.043t-0.023-0.051-0.031-0.043-0.043-0.020-0.055 0.039-0.059 0.078-0.035 0.039q-0.023-0.016-0.047-0.012t-0.035 0.008-0.035 0.023-0.039 0.027q-0.023 0.016-0.066 0.023t-0.066 0.016q0.117-0.039-0.008-0.086-0.078-0.031-0.125-0.023 0.070-0.031 0.059-0.094t-0.066-0.109h0.039q-0.008-0.031-0.066-0.066t-0.137-0.066-0.102-0.047q-0.062-0.039-0.266-0.074t-0.258-0.004q-0.039 0.047-0.035 0.082t0.031 0.109 0.027 0.098q0.008 0.047-0.043 0.102t-0.051 0.094q0 0.055 0.109 0.121t0.078 0.168q-0.023 0.062-0.125 0.125t-0.125 0.094q-0.039 0.062-0.012 0.145t0.082 0.129q0.016 0.016 0.012 0.031t-0.027 0.035-0.043 0.031-0.051 0.027l-0.023 0.016q-0.086 0.039-0.16-0.047t-0.105-0.203q-0.055-0.195-0.125-0.234-0.18-0.062-0.227 0.008-0.039-0.102-0.32-0.203-0.195-0.070-0.453-0.031 0.047-0.008 0-0.117-0.055-0.117-0.148-0.094 0.023-0.047 0.031-0.137t0.008-0.105q0.023-0.102 0.094-0.18 0.008-0.008 0.055-0.066t0.074-0.105 0.004-0.047q0.273 0.031 0.391-0.086 0.039-0.039 0.090-0.133t0.082-0.133q0.070-0.047 0.109-0.043t0.113 0.043 0.113 0.039q0.109 0.008 0.121-0.086t-0.059-0.156q0.094 0.008 0.023-0.133-0.039-0.055-0.062-0.070-0.094-0.031-0.211 0.039-0.062 0.031 0.016 0.062-0.008-0.008-0.074 0.082t-0.129 0.137-0.125-0.039q-0.008-0.008-0.043-0.105t-0.074-0.105q-0.062 0-0.125 0.117 0.023-0.062-0.086-0.117t-0.187-0.062q0.148-0.094-0.062-0.211-0.055-0.031-0.16-0.039t-0.152 0.031q-0.039 0.055-0.043 0.090t0.039 0.062 0.082 0.043 0.090 0.031 0.066 0.023q0.109 0.078 0.062 0.109-0.016 0.008-0.066 0.027t-0.090 0.035-0.047 0.031q-0.023 0.031 0 0.109t-0.016 0.109q-0.039-0.039-0.070-0.137t-0.055-0.129q0.055 0.070-0.195 0.047l-0.078-0.008q-0.031 0-0.125 0.016t-0.16 0.008-0.105-0.062q-0.031-0.062 0-0.156 0.008-0.031 0.031-0.016-0.031-0.023-0.086-0.074t-0.078-0.066q-0.359 0.117-0.734 0.32 0.047 0.008 0.094-0.008 0.039-0.016 0.102-0.051t0.078-0.043q0.266-0.109 0.328-0.055l0.039-0.039q0.109 0.125 0.156 0.195-0.055-0.031-0.234-0.008-0.156 0.047-0.172 0.094 0.055 0.094 0.039 0.141-0.031-0.023-0.090-0.078t-0.113-0.086-0.117-0.039q-0.125 0-0.172 0.008-1.141 0.625-1.836 1.734 0.055 0.055 0.094 0.062 0.031 0.008 0.039 0.070t0.020 0.086 0.090-0.023q0.070 0.062 0.023 0.148 0.008-0.008 0.344 0.211 0.148 0.133 0.164 0.164 0.023 0.086-0.078 0.141-0.008-0.016-0.070-0.070t-0.070-0.031q-0.023 0.039 0.004 0.145t0.082 0.098q-0.055 0-0.074 0.125t-0.020 0.277-0.008 0.184l0.016 0.008q-0.023 0.094 0.043 0.27t0.168 0.152q-0.102 0.023 0.156 0.336 0.047 0.062 0.062 0.070 0.023 0.016 0.094 0.059t0.117 0.078 0.078 0.082q0.031 0.039 0.078 0.176t0.109 0.184q-0.016 0.047 0.074 0.156t0.082 0.18q-0.008 0-0.020 0.008t-0.020 0.008q0.023 0.055 0.121 0.109t0.121 0.102q0.008 0.023 0.016 0.078t0.023 0.086 0.062 0.016q0.016-0.156-0.187-0.484-0.117-0.195-0.133-0.227-0.023-0.039-0.043-0.121t-0.035-0.113q0.016 0 0.047 0.012t0.066 0.027 0.059 0.031 0.016 0.023q-0.023 0.055 0.016 0.137t0.094 0.145 0.133 0.148 0.094 0.102q0.047 0.047 0.109 0.152t0 0.105q0.070 0 0.156 0.078t0.133 0.156q0.039 0.062 0.062 0.203t0.039 0.187q0.016 0.055 0.066 0.105t0.098 0.074l0.125 0.062t0.102 0.055q0.039 0.016 0.145 0.082t0.168 0.090q0.078 0.031 0.125 0.031t0.113-0.020 0.105-0.027q0.117-0.016 0.227 0.117t0.164 0.164q0.281 0.148 0.43 0.086-0.016 0.008 0.004 0.059t0.062 0.121 0.070 0.113 0.043 0.066q0.039 0.047 0.141 0.117t0.141 0.117q0.047-0.031 0.055-0.070-0.023 0.062 0.055 0.156t0.141 0.078q0.109-0.023 0.109-0.25-0.242 0.117-0.383-0.141 0-0.008-0.020-0.043t-0.031-0.066-0.020-0.066 0-0.059 0.039-0.023q0.070 0 0.078-0.027t-0.016-0.098-0.031-0.102q-0.008-0.062-0.086-0.156t-0.094-0.117q-0.039 0.070-0.125 0.062t-0.125-0.070q0 0.008-0.012 0.043t-0.012 0.051q-0.102 0-0.117-0.008 0.008-0.023 0.020-0.137t0.027-0.176q0.008-0.031 0.043-0.094t0.059-0.113 0.031-0.098-0.035-0.074-0.137-0.020q-0.148 0.008-0.203 0.156-0.008 0.023-0.023 0.082t-0.039 0.090-0.070 0.055q-0.055 0.023-0.187 0.016t-0.187-0.039q-0.102-0.062-0.176-0.227t-0.074-0.289q0-0.078 0.020-0.207t0.023-0.195-0.043-0.191q0.023-0.016 0.070-0.074t0.078-0.082q0.016-0.008 0.035-0.012t0.035 0 0.031-0.012 0.023-0.047q-0.008-0.008-0.031-0.023-0.023-0.023-0.031-0.023 0.055 0.023 0.223-0.012t0.215 0.012q0.117 0.086 0.172-0.016 0-0.008-0.020-0.074t-0.004-0.105q0.039 0.211 0.227 0.070 0.023 0.023 0.121 0.039t0.137 0.039q0.023 0.016 0.055 0.043t0.043 0.035 0.039-0.004 0.066-0.051q0.078 0.109 0.094 0.187 0.086 0.312 0.148 0.344 0.055 0.023 0.086 0.016t0.035-0.074 0-0.109-0.012-0.098l-0.008-0.062v-0.141l-0.008-0.062q-0.117-0.023-0.145-0.094t0.012-0.145 0.117-0.145q0.008-0.008 0.062-0.027t0.121-0.051 0.098-0.062q0.164-0.148 0.117-0.273 0.055 0 0.086-0.070-0.008 0-0.039-0.023t-0.059-0.039-0.035-0.016q0.070-0.039 0.016-0.125 0.039-0.023 0.059-0.086t0.059-0.078q0.070 0.094 0.164 0.016 0.055-0.062 0.008-0.125 0.039-0.055 0.16-0.082t0.145-0.074q0.055 0.016 0.062-0.016t0.008-0.094 0.023-0.094q0.031-0.039 0.117-0.070t0.102-0.039l0.133-0.086q0.023-0.031 0-0.031 0.141 0.016 0.242-0.086 0.078-0.086-0.047-0.156 0.023-0.047-0.023-0.074t-0.117-0.043q0.023-0.008 0.090-0.004t0.082-0.012q0.117-0.078-0.055-0.125-0.133-0.039-0.336 0.094zM6.867 11.922q1.609-0.281 2.742-1.477-0.023-0.023-0.098-0.035t-0.098-0.027q-0.141-0.055-0.187-0.062 0.008-0.055-0.020-0.102t-0.062-0.070-0.098-0.062-0.086-0.055q-0.016-0.016-0.055-0.047t-0.055-0.043-0.059-0.035-0.066-0.016-0.078 0.008l-0.023 0.008q-0.023 0.008-0.043 0.020t-0.043 0.023-0.031 0.023 0 0.020q-0.164-0.133-0.281-0.172-0.039-0.008-0.086-0.043t-0.082-0.055-0.078-0.012-0.090 0.055q-0.039 0.039-0.047 0.117t-0.016 0.102q-0.055-0.039 0-0.137t0.016-0.145q-0.023-0.047-0.082-0.035t-0.094 0.035-0.090 0.066-0.070 0.051-0.066 0.043-0.066 0.059q-0.023 0.031-0.047 0.094t-0.039 0.086q-0.016-0.031-0.090-0.051t-0.074-0.043q0.016 0.078 0.031 0.273t0.039 0.297q0.055 0.242-0.094 0.375-0.211 0.195-0.227 0.312-0.031 0.172 0.094 0.203 0 0.055-0.062 0.16t-0.055 0.168q0 0.047 0.016 0.125z"/> </symbol><symbol viewBox="0 0 15 14" id="icon-group"><title>group</title> <path d="M4.633 7q-1.266 0.039-2.070 1h-1.047q-0.641 0-1.078-0.316t-0.438-0.926q0-2.758 0.969-2.758 0.047 0 0.34 0.164t0.762 0.332 0.93 0.168q0.523 0 1.039-0.18-0.039 0.289-0.039 0.516 0 1.086 0.633 2zM13 11.977q0 0.937-0.57 1.48t-1.516 0.543h-6.828q-0.945 0-1.516-0.543t-0.57-1.48q0-0.414 0.027-0.809t0.109-0.852 0.207-0.848 0.336-0.762 0.484-0.633 0.668-0.418 0.871-0.156q0.078 0 0.336 0.168t0.57 0.375 0.836 0.375 1.055 0.168 1.055-0.168 0.836-0.375 0.57-0.375 0.336-0.168q0.477 0 0.871 0.156t0.668 0.418 0.484 0.633 0.336 0.762 0.207 0.848 0.109 0.852 0.027 0.809zM5 2q0 0.828-0.586 1.414t-1.414 0.586-1.414-0.586-0.586-1.414 0.586-1.414 1.414-0.586 1.414 0.586 0.586 1.414zM10.5 5q0 1.242-0.879 2.121t-2.121 0.879-2.121-0.879-0.879-2.121 0.879-2.121 2.121-0.879 2.121 0.879 0.879 2.121zM15 6.758q0 0.609-0.438 0.926t-1.078 0.316h-1.047q-0.805-0.961-2.070-1 0.633-0.914 0.633-2 0-0.227-0.039-0.516 0.516 0.18 1.039 0.18 0.461 0 0.93-0.168t0.762-0.332 0.34-0.164q0.969 0 0.969 2.758zM14 2q0 0.828-0.586 1.414t-1.414 0.586-1.414-0.586-0.586-1.414 0.586-1.414 1.414-0.586 1.414 0.586 0.586 1.414z"/> </symbol><symbol viewBox="0 0 16 16" id="icon-happy"><title>happy</title> <path d="M8 16c4.418 0 8-3.582 8-8s-3.582-8-8-8-8 3.582-8 8 3.582 8 8 8zM8 1.5c3.59 0 6.5 2.91 6.5 6.5s-2.91 6.5-6.5 6.5-6.5-2.91-6.5-6.5 2.91-6.5 6.5-6.5zM8 9.356c1.812 0 3.535-0.481 5-1.327-0.228 2.788-2.393 4.971-5 4.971s-4.772-2.186-5-4.973c1.465 0.845 3.188 1.329 5 1.329zM4 5.5c0-0.828 0.448-1.5 1-1.5s1 0.672 1 1.5c0 0.828-0.448 1.5-1 1.5s-1-0.672-1-1.5zM10 5.5c0-0.828 0.448-1.5 1-1.5s1 0.672 1 1.5c0 0.828-0.448 1.5-1 1.5s-1-0.672-1-1.5z"/> </symbol><symbol viewBox="0 0 16 16" id="icon-happy2"><title>happy2</title> <path d="M8 0c-4.418 0-8 3.582-8 8s3.582 8 8 8 8-3.582 8-8-3.582-8-8-8zM11 4c0.552 0 1 0.672 1 1.5s-0.448 1.5-1 1.5-1-0.672-1-1.5 0.448-1.5 1-1.5zM5 4c0.552 0 1 0.672 1 1.5s-0.448 1.5-1 1.5-1-0.672-1-1.5 0.448-1.5 1-1.5zM8 14c-2.607 0-4.772-2.186-5-4.973 1.465 0.846 3.188 1.329 5 1.329s3.535-0.481 5-1.327c-0.228 2.788-2.393 4.971-5 4.971z"/> </symbol><symbol viewBox="0 0 16 16" id="icon-heart copy"><title>heart copy</title> <path d="M11.8 1c-1.682 0-3.129 1.368-3.799 2.797-0.671-1.429-2.118-2.797-3.8-2.797-2.318 0-4.2 1.882-4.2 4.2 0 4.716 4.758 5.953 8 10.616 3.065-4.634 8-6.050 8-10.616 0-2.319-1.882-4.2-4.2-4.2z"/> </symbol><symbol viewBox="0 0 14 14" id="icon-heart-o"><title>heart-o</title> <path d="M13 4.656q0-0.633-0.168-1.117t-0.43-0.77-0.637-0.465-0.734-0.242-0.766-0.062-0.875 0.199-0.863 0.5-0.676 0.563-0.469 0.48q-0.141 0.172-0.383 0.172t-0.383-0.172q-0.187-0.219-0.469-0.48t-0.676-0.563-0.863-0.5-0.875-0.199-0.766 0.062-0.734 0.242-0.637 0.465-0.43 0.77-0.168 1.117q0 1.313 1.461 2.773l4.539 4.375 4.531-4.367q1.469-1.469 1.469-2.781zM14 4.656q0 1.727-1.789 3.516l-4.867 4.687q-0.141 0.141-0.344 0.141t-0.344-0.141l-4.875-4.703q-0.078-0.062-0.215-0.203t-0.434-0.512-0.531-0.762-0.418-0.945-0.184-1.078q0-1.719 0.992-2.687t2.742-0.969q0.484 0 0.988 0.168t0.937 0.453 0.746 0.535 0.594 0.531q0.281-0.281 0.594-0.531t0.746-0.535 0.937-0.453 0.988-0.168q1.75 0 2.742 0.969t0.992 2.687z"/> </symbol><symbol viewBox="0 0 14 14" id="icon-heart"><title>heart</title> <path d="M7 13q-0.203 0-0.344-0.141l-4.875-4.703q-0.078-0.062-0.215-0.203t-0.434-0.512-0.531-0.762-0.418-0.945-0.184-1.078q0-1.719 0.992-2.687t2.742-0.969q0.484 0 0.988 0.168t0.937 0.453 0.746 0.535 0.594 0.531q0.281-0.281 0.594-0.531t0.746-0.535 0.937-0.453 0.988-0.168q1.75 0 2.742 0.969t0.992 2.687q0 1.727-1.789 3.516l-4.867 4.687q-0.141 0.141-0.344 0.141z"/> </symbol><symbol viewBox="0 0 14 14" id="icon-heartbeat"><title>heartbeat</title> <path d="M10 8h2.383q-0.039 0.047-0.078 0.082t-0.070 0.059l-0.023 0.031-4.867 4.687q-0.141 0.141-0.344 0.141t-0.344-0.141l-4.875-4.703q-0.039-0.016-0.164-0.156h2.883q0.172 0 0.309-0.105t0.176-0.27l0.547-2.195 1.484 5.211q0.047 0.156 0.18 0.258t0.305 0.102q0.164 0 0.297-0.102t0.18-0.258l1.141-3.789 0.438 0.875q0.141 0.273 0.445 0.273zM14 4.656q0 1.133-0.805 2.344h-2.883l-0.867-1.727q-0.062-0.133-0.199-0.211t-0.285-0.062q-0.352 0.039-0.438 0.359l-1.008 3.359-1.531-5.359q-0.047-0.156-0.184-0.258t-0.309-0.102-0.305 0.105-0.172 0.27l-0.906 3.625h-3.305q-0.805-1.211-0.805-2.344 0-1.719 0.992-2.687t2.742-0.969q0.484 0 0.988 0.168t0.937 0.453 0.746 0.535 0.594 0.531q0.281-0.281 0.594-0.531t0.746-0.535 0.937-0.453 0.988-0.168q1.75 0 2.742 0.969t0.992 2.687z"/> </symbol><symbol viewBox="0 0 11 14" id="icon-hospital-o"><title>hospital-o</title> <path d="M3 10.25v0.5q0 0.102-0.074 0.176t-0.176 0.074h-0.5q-0.102 0-0.176-0.074t-0.074-0.176v-0.5q0-0.102 0.074-0.176t0.176-0.074h0.5q0.102 0 0.176 0.074t0.074 0.176zM3 8.25v0.5q0 0.102-0.074 0.176t-0.176 0.074h-0.5q-0.102 0-0.176-0.074t-0.074-0.176v-0.5q0-0.102 0.074-0.176t0.176-0.074h0.5q0.102 0 0.176 0.074t0.074 0.176zM5 8.25v0.5q0 0.102-0.074 0.176t-0.176 0.074h-0.5q-0.102 0-0.176-0.074t-0.074-0.176v-0.5q0-0.102 0.074-0.176t0.176-0.074h0.5q0.102 0 0.176 0.074t0.074 0.176zM3 6.25v0.5q0 0.102-0.074 0.176t-0.176 0.074h-0.5q-0.102 0-0.176-0.074t-0.074-0.176v-0.5q0-0.102 0.074-0.176t0.176-0.074h0.5q0.102 0 0.176 0.074t0.074 0.176zM9 10.25v0.5q0 0.102-0.074 0.176t-0.176 0.074h-0.5q-0.102 0-0.176-0.074t-0.074-0.176v-0.5q0-0.102 0.074-0.176t0.176-0.074h0.5q0.102 0 0.176 0.074t0.074 0.176zM7 8.25v0.5q0 0.102-0.074 0.176t-0.176 0.074h-0.5q-0.102 0-0.176-0.074t-0.074-0.176v-0.5q0-0.102 0.074-0.176t0.176-0.074h0.5q0.102 0 0.176 0.074t0.074 0.176zM5 6.25v0.5q0 0.102-0.074 0.176t-0.176 0.074h-0.5q-0.102 0-0.176-0.074t-0.074-0.176v-0.5q0-0.102 0.074-0.176t0.176-0.074h0.5q0.102 0 0.176 0.074t0.074 0.176zM9 8.25v0.5q0 0.102-0.074 0.176t-0.176 0.074h-0.5q-0.102 0-0.176-0.074t-0.074-0.176v-0.5q0-0.102 0.074-0.176t0.176-0.074h0.5q0.102 0 0.176 0.074t0.074 0.176zM7 6.25v0.5q0 0.102-0.074 0.176t-0.176 0.074h-0.5q-0.102 0-0.176-0.074t-0.074-0.176v-0.5q0-0.102 0.074-0.176t0.176-0.074h0.5q0.102 0 0.176 0.074t0.074 0.176zM9 6.25v0.5q0 0.102-0.074 0.176t-0.176 0.074h-0.5q-0.102 0-0.176-0.074t-0.074-0.176v-0.5q0-0.102 0.074-0.176t0.176-0.074h0.5q0.102 0 0.176 0.074t0.074 0.176zM7 13h3v-9h-2v0.25q0 0.312-0.219 0.531t-0.531 0.219h-3.5q-0.312 0-0.531-0.219t-0.219-0.531v-0.25h-2v9h3v-1.75q0-0.102 0.074-0.176t0.176-0.074h2.5q0.102 0 0.176 0.074t0.074 0.176v1.75zM7 3.75v-2.5q0-0.102-0.074-0.176t-0.176-0.074h-0.5q-0.102 0-0.176 0.074t-0.074 0.176v0.75h-1v-0.75q0-0.102-0.074-0.176t-0.176-0.074h-0.5q-0.102 0-0.176 0.074t-0.074 0.176v2.5q0 0.102 0.074 0.176t0.176 0.074h0.5q0.102 0 0.176-0.074t0.074-0.176v-0.75h1v0.75q0 0.102 0.074 0.176t0.176 0.074h0.5q0.102 0 0.176-0.074t0.074-0.176zM11 3.5v10q0 0.203-0.148 0.352t-0.352 0.148h-10q-0.203 0-0.352-0.148t-0.148-0.352v-10q0-0.203 0.148-0.352t0.352-0.148h2.5v-2.25q0-0.312 0.219-0.531t0.531-0.219h3.5q0.312 0 0.531 0.219t0.219 0.531v2.25h2.5q0.203 0 0.352 0.148t0.148 0.352z"/> </symbol><symbol viewBox="0 0 12 14" id="icon-instagram"><title>instagram</title> <path d="M10.641 11.141v-5.063h-1.055q0.156 0.492 0.156 1.023 0 0.984-0.5 1.816t-1.359 1.316-1.875 0.484q-1.539 0-2.633-1.059t-1.094-2.559q0-0.531 0.156-1.023h-1.102v5.063q0 0.203 0.137 0.34t0.34 0.137h8.352q0.195 0 0.336-0.137t0.141-0.34zM8.422 6.977q0-0.969-0.707-1.652t-1.707-0.684q-0.992 0-1.699 0.684t-0.707 1.652 0.707 1.652 1.699 0.684q1 0 1.707-0.684t0.707-1.652zM10.641 4.164v-1.289q0-0.219-0.156-0.379t-0.383-0.16h-1.359q-0.227 0-0.383 0.16t-0.156 0.379v1.289q0 0.227 0.156 0.383t0.383 0.156h1.359q0.227 0 0.383-0.156t0.156-0.383zM12 2.539v8.922q0 0.633-0.453 1.086t-1.086 0.453h-8.922q-0.633 0-1.086-0.453t-0.453-1.086v-8.922q0-0.633 0.453-1.086t1.086-0.453h8.922q0.633 0 1.086 0.453t0.453 1.086z"/> </symbol><symbol viewBox="0 0 16 16" id="icon-lab"><title>lab</title> <path d="M14.942 12.57l-4.942-8.235v-3.335h0.5c0.275 0 0.5-0.225 0.5-0.5s-0.225-0.5-0.5-0.5h-5c-0.275 0-0.5 0.225-0.5 0.5s0.225 0.5 0.5 0.5h0.5v3.335l-4.942 8.235c-1.132 1.886-0.258 3.43 1.942 3.43h10c2.2 0 3.074-1.543 1.942-3.43zM3.766 10l3.234-5.39v-3.61h2v3.61l3.234 5.39h-8.468z"/> </symbol><symbol viewBox="0 0 16 16" id="icon-leaf copy"><title>leaf copy</title> <path d="M15.802 2.102c-1.73-1.311-4.393-2.094-7.124-2.094-3.377 0-6.129 1.179-7.549 3.235-0.667 0.965-1.036 2.109-1.097 3.398-0.054 1.148 0.139 2.418 0.573 3.784 1.482-4.444 5.622-7.923 10.395-7.923 0 0-4.466 1.175-7.274 4.816-0.002 0.002-0.039 0.048-0.103 0.136-0.564 0.754-1.055 1.612-1.423 2.583-0.623 1.482-1.2 3.515-1.2 5.965h2c0 0-0.304-1.91 0.224-4.106 0.873 0.118 1.654 0.177 2.357 0.177 1.839 0 3.146-0.398 4.115-1.252 0.868-0.765 1.347-1.794 1.854-2.882 0.774-1.663 1.651-3.547 4.198-5.002 0.146-0.083 0.24-0.234 0.251-0.402s-0.063-0.329-0.197-0.431z"/> </symbol><symbol viewBox="0 0 14 14" id="icon-leaf"><title>leaf</title> <path d="M10 5.5q0-0.203-0.148-0.352t-0.352-0.148q-1.344 0-2.484 0.387t-2.027 1.047-1.84 1.715q-0.148 0.164-0.148 0.352 0 0.203 0.148 0.352t0.352 0.148q0.187 0 0.352-0.148 0.211-0.187 0.578-0.555t0.523-0.516q1.070-0.969 2.098-1.375t2.449-0.406q0.203 0 0.352-0.148t0.148-0.352zM14 3.953q0 0.742-0.156 1.508-0.359 1.75-1.441 2.992t-2.793 2.094q-1.672 0.844-3.422 0.844-1.156 0-2.234-0.367-0.117-0.039-0.688-0.328t-0.75-0.289q-0.125 0-0.309 0.25t-0.352 0.547-0.41 0.547-0.469 0.25q-0.234 0-0.398-0.086t-0.242-0.187-0.211-0.328q-0.016-0.031-0.047-0.086t-0.043-0.078-0.023-0.074-0.012-0.105q0-0.273 0.242-0.574t0.531-0.512 0.531-0.438 0.242-0.375q0-0.031-0.109-0.297t-0.125-0.344q-0.070-0.398-0.070-0.813 0-0.898 0.34-1.719t0.93-1.441 1.332-1.086 1.594-0.746q0.43-0.141 1.133-0.199t1.402-0.070 1.395-0.047 1.277-0.187 0.887-0.441l0.23-0.23t0.23-0.219 0.211-0.156 0.285-0.125 0.34-0.035q0.305 0 0.551 0.359t0.371 0.875 0.187 0.969 0.062 0.75z"/> </symbol><symbol viewBox="0 0 16 16" id="icon-link"><title>link</title> <path d="M6.879 9.934c-0.208 0-0.416-0.079-0.575-0.238-1.486-1.486-1.486-3.905 0-5.392l3-3c0.72-0.72 1.678-1.117 2.696-1.117s1.976 0.397 2.696 1.117c1.486 1.487 1.486 3.905 0 5.392l-1.371 1.371c-0.317 0.317-0.832 0.317-1.149 0s-0.317-0.832 0-1.149l1.371-1.371c0.853-0.853 0.853-2.241 0-3.094-0.413-0.413-0.963-0.641-1.547-0.641s-1.134 0.228-1.547 0.641l-3 3c-0.853 0.853-0.853 2.241 0 3.094 0.317 0.317 0.317 0.832 0 1.149-0.159 0.159-0.367 0.238-0.575 0.238z"/> <path d="M4 15.813c-1.018 0-1.976-0.397-2.696-1.117-1.486-1.486-1.486-3.905 0-5.392l1.371-1.371c0.317-0.317 0.832-0.317 1.149 0s0.317 0.832 0 1.149l-1.371 1.371c-0.853 0.853-0.853 2.241 0 3.094 0.413 0.413 0.962 0.641 1.547 0.641s1.134-0.228 1.547-0.641l3-3c0.853-0.853 0.853-2.241 0-3.094-0.317-0.317-0.317-0.832 0-1.149s0.832-0.317 1.149 0c1.486 1.486 1.486 3.905 0 5.392l-3 3c-0.72 0.72-1.678 1.117-2.696 1.117z"/> </symbol><symbol viewBox="0 0 16 16" id="icon-location"><title>location</title> <path d="M8 0c-2.761 0-5 2.239-5 5 0 5 5 11 5 11s5-6 5-11c0-2.761-2.239-5-5-5zM8 8c-1.657 0-3-1.343-3-3s1.343-3 3-3 3 1.343 3 3-1.343 3-3 3z"/> </symbol><symbol viewBox="0 0 16 16" id="icon-location2"><title>location2</title> <path d="M8 0c-2.761 0-5 2.239-5 5 0 5 5 11 5 11s5-6 5-11c0-2.761-2.239-5-5-5zM8 8.063c-1.691 0-3.063-1.371-3.063-3.063s1.371-3.063 3.063-3.063 3.063 1.371 3.063 3.063-1.371 3.063-3.063 3.063zM6.063 5c0-1.070 0.867-1.938 1.938-1.938s1.938 0.867 1.938 1.938c0 1.070-0.867 1.938-1.938 1.938s-1.938-0.867-1.938-1.938z"/> </symbol><symbol viewBox="0 0 220.875 29.562" id="icon-logo"><title>logo</title> <path d="M11.086,15.826c2.152,0,3.15,1.633,3.36,3.952c0.049,0.556-0.002,1.364-0.074,2.301
	c-0.242,3.114-0.52,6.939,1.553,6.939c1.753,0,2.654-3.363,3.174-7.198c0.502-3.795-0.03-5.685,0.231-7.369
	c0.498-3.193,3.286-6.056,2.424-10.128c-0.477-2.259-1.72-3.321-2.953-3.768c-2.838-1.033-4.67,0.957-7.718,0.957
	s-4.88-1.99-7.719-0.957C2.135,1.002,0.891,2.064,0.414,4.323c-0.86,4.071,1.926,6.935,2.426,10.128
	c0.261,1.685-0.27,3.574,0.232,7.369c0.52,3.834,1.42,7.198,3.174,7.198c2.071,0,1.795-3.825,1.553-6.939
	c-0.071-0.937-0.124-1.746-0.074-2.301C7.934,17.458,8.945,15.826,11.086,15.826L11.086,15.826z"/> <g> <path d="M27.138,26.492V2.483h8.207c7.451,0,12.311,5.219,12.311,12.022c0,6.839-4.859,11.986-12.311,11.986H27.138
		z M44.56,14.505c0-5.184-3.275-9.359-9.215-9.359h-5.219v18.682h5.219C41.176,23.828,44.56,19.652,44.56,14.505z"/> <path d="M51.222,17.781c0-5.04,3.6-9.107,8.567-9.107c5.255,0,8.351,4.104,8.351,9.323v0.684H54.065
		c0.216,3.275,2.52,6.011,6.263,6.011c1.979,0,3.995-0.792,5.363-2.196l1.296,1.764c-1.728,1.728-4.068,2.664-6.911,2.664
		C54.929,26.924,51.222,23.216,51.222,17.781z M59.752,10.906c-3.708,0-5.543,3.131-5.687,5.795h11.41
		C65.44,14.109,63.712,10.906,59.752,10.906z"/> <path d="M84.231,26.492V15.117c0-3.06-1.548-4.032-3.887-4.032c-2.124,0-4.14,1.296-5.147,2.7v12.707h-2.7V9.106
		h2.7v2.52c1.224-1.44,3.6-2.952,6.191-2.952c3.636,0,5.543,1.836,5.543,5.615v12.203H84.231z"/> <path d="M92.873,22.856V11.481h-2.88V9.106h2.88V4.354h2.7v4.751H99.1v2.375h-3.527V22.28
		c0,1.296,0.576,2.231,1.764,2.231c0.756,0,1.476-0.324,1.836-0.72l0.792,2.016c-0.685,0.648-1.656,1.116-3.24,1.116
		C94.169,26.924,92.873,25.448,92.873,22.856z"/> <path d="M102.449,4.822c0-1.008,0.828-1.835,1.8-1.835c1.008,0,1.836,0.828,1.836,1.835s-0.828,1.8-1.836,1.8
		C103.277,6.622,102.449,5.83,102.449,4.822z M102.917,26.492V9.106h2.7v17.386H102.917z"/> <path d="M109.505,24.188l1.404-1.944c1.15,1.332,3.348,2.484,5.723,2.484c2.664,0,4.104-1.26,4.104-2.988
		c0-4.211-10.762-1.62-10.762-8.063c0-2.7,2.338-5.003,6.479-5.003c2.951,0,5.039,1.116,6.443,2.52l-1.26,1.872
		c-1.045-1.26-2.953-2.196-5.184-2.196c-2.377,0-3.852,1.188-3.852,2.736c0,3.815,10.762,1.296,10.762,8.063
		c0,2.916-2.34,5.255-6.838,5.255C113.681,26.924,111.269,26.06,109.505,24.188z"/> <path d="M128.296,22.856V11.481h-2.879V9.106h2.879V4.354h2.699v4.751h3.527v2.375h-3.527V22.28
		c0,1.296,0.576,2.231,1.764,2.231c0.756,0,1.477-0.324,1.836-0.72l0.793,2.016c-0.686,0.648-1.656,1.116-3.24,1.116
		C129.591,26.924,128.296,25.448,128.296,22.856z"/> <path d="M137.009,23.108l1.764-2.268c1.584,1.764,4.174,3.419,7.559,3.419c4.283,0,5.65-2.304,5.65-4.139
		c0-6.191-14.217-2.772-14.217-11.339c0-3.959,3.527-6.659,8.242-6.659c3.672,0,6.516,1.224,8.531,3.348l-1.801,2.196
		c-1.799-1.979-4.318-2.879-6.947-2.879c-2.879,0-4.93,1.547-4.93,3.815c0,5.399,14.217,2.304,14.217,11.267
		c0,3.491-2.375,7.055-8.854,7.055C142.048,26.924,138.987,25.34,137.009,23.108z"/> <path d="M180.421,26.492V14.685c0-2.196-0.973-3.6-3.203-3.6c-1.801,0-3.709,1.296-4.607,2.664v12.742h-2.699
		V14.685c0-2.196-0.938-3.6-3.205-3.6c-1.764,0-3.635,1.296-4.57,2.7v12.707h-2.701V9.106h2.701v2.52
		c0.719-1.116,3.059-2.952,5.615-2.952c2.664,0,4.176,1.44,4.68,3.24c0.971-1.584,3.311-3.24,5.83-3.24
		c3.168,0,4.859,1.764,4.859,5.255v12.562H180.421z"/> <path d="M188.056,4.822c0-1.008,0.828-1.835,1.799-1.835c1.008,0,1.836,0.828,1.836,1.835s-0.828,1.8-1.836,1.8
		C188.884,6.622,188.056,5.83,188.056,4.822z M188.522,26.492V9.106h2.701v17.386H188.522z"/> <path d="M196.622,26.492V2.483h2.701v24.009H196.622z"/> <path d="M203.716,17.781c0-5.04,3.6-9.107,8.566-9.107c5.256,0,8.352,4.104,8.352,9.323v0.684H206.56
		c0.215,3.275,2.52,6.011,6.264,6.011c1.979,0,3.994-0.792,5.363-2.196l1.295,1.764c-1.727,1.728-4.066,2.664-6.91,2.664
		C207.423,26.924,203.716,23.216,203.716,17.781z M212.247,10.906c-3.707,0-5.543,3.131-5.688,5.795h11.41
		C217.935,14.109,216.206,10.906,212.247,10.906z"/> </g> </symbol><symbol viewBox="0 0 8 14" id="icon-map-marker"><title>map-marker</title> <path d="M6 5q0-0.828-0.586-1.414t-1.414-0.586-1.414 0.586-0.586 1.414 0.586 1.414 1.414 0.586 1.414-0.586 0.586-1.414zM8 5q0 0.852-0.258 1.398l-2.844 6.047q-0.125 0.258-0.371 0.406t-0.527 0.148-0.527-0.148-0.363-0.406l-2.852-6.047q-0.258-0.547-0.258-1.398 0-1.656 1.172-2.828t2.828-1.172 2.828 1.172 1.172 2.828z"/> </symbol><symbol viewBox="0 0 16 16" id="icon-map"><title>map</title> <path d="M0 3l5-2v12l-5 2z"/> <path d="M6 0.5l5 3v11.5l-5-2.5z"/> <path d="M12 3.5l4-3v12l-4 3z"/> </symbol><symbol viewBox="0 0 16 16" id="icon-map2"><title>map2</title> <path d="M10.5 3l-5-2-5.5 2v12l5.5-2 5 2 5.5-2v-12l-5.5 2zM6 2.277l4 1.6v9.846l-4-1.6v-9.846zM1 3.7l4-1.455v9.872l-4 1.454v-9.872zM15 12.3l-4 1.455v-9.872l4-1.455v9.872z"/> </symbol><symbol viewBox="0 0 14 14" id="icon-medkit"><title>medkit</title> <path d="M10 8.75v-1.5q0-0.109-0.070-0.18t-0.18-0.070h-1.75v-1.75q0-0.109-0.070-0.18t-0.18-0.070h-1.5q-0.109 0-0.18 0.070t-0.070 0.18v1.75h-1.75q-0.109 0-0.18 0.070t-0.070 0.18v1.5q0 0.109 0.070 0.18t0.18 0.070h1.75v1.75q0 0.109 0.070 0.18t0.18 0.070h1.5q0.109 0 0.18-0.070t0.070-0.18v-1.75h1.75q0.109 0 0.18-0.070t0.070-0.18zM5 3h4v-1h-4v1zM2 3v10h-0.25q-0.719 0-1.234-0.516t-0.516-1.234v-6.5q0-0.719 0.516-1.234t1.234-0.516h0.25zM11.25 3v10h-8.5v-10h1.25v-1.25q0-0.312 0.219-0.531t0.531-0.219h4.5q0.312 0 0.531 0.219t0.219 0.531v1.25h1.25zM14 4.75v6.5q0 0.719-0.516 1.234t-1.234 0.516h-0.25v-10h0.25q0.719 0 1.234 0.516t0.516 1.234z"/> </symbol><symbol viewBox="0 0 16 16" id="icon-pencil"><title>pencil</title> <path d="M13.5 0c1.381 0 2.5 1.119 2.5 2.5 0 0.563-0.186 1.082-0.5 1.5l-1 1-3.5-3.5 1-1c0.418-0.314 0.937-0.5 1.5-0.5zM1 11.5l-1 4.5 4.5-1 9.25-9.25-3.5-3.5-9.25 9.25zM11.181 5.681l-7 7-0.862-0.862 7-7 0.862 0.862z"/> </symbol><symbol viewBox="0 0 11 14" id="icon-phone"><title>phone</title> <path d="M11 9.687q0 0.211-0.078 0.551t-0.164 0.535q-0.164 0.391-0.953 0.828-0.734 0.398-1.453 0.398-0.211 0-0.41-0.027t-0.449-0.098-0.371-0.113-0.434-0.16-0.383-0.141q-0.766-0.273-1.367-0.648-1-0.617-2.066-1.684t-1.684-2.066q-0.375-0.602-0.648-1.367-0.023-0.070-0.141-0.383t-0.16-0.434-0.113-0.371-0.098-0.449-0.027-0.41q0-0.719 0.398-1.453 0.438-0.789 0.828-0.953 0.195-0.086 0.535-0.164t0.551-0.078q0.109 0 0.164 0.023 0.141 0.047 0.414 0.594 0.086 0.148 0.234 0.422t0.273 0.496 0.242 0.418q0.023 0.031 0.137 0.195t0.168 0.277 0.055 0.223q0 0.156-0.223 0.391t-0.484 0.43-0.484 0.414-0.223 0.359q0 0.070 0.039 0.176t0.066 0.16 0.109 0.187 0.090 0.148q0.594 1.070 1.359 1.836t1.836 1.359q0.016 0.008 0.148 0.090t0.187 0.109 0.16 0.066 0.176 0.039q0.141 0 0.359-0.223t0.414-0.484 0.43-0.484 0.391-0.223q0.109 0 0.223 0.055t0.277 0.168 0.195 0.137q0.195 0.117 0.418 0.242t0.496 0.273 0.422 0.234q0.547 0.273 0.594 0.414 0.023 0.055 0.023 0.164z"/> </symbol><symbol viewBox="0 0 16 16" id="icon-power"><title>power</title> <path d="M6 0l-6 8h6l-4 8 14-10h-8l6-6z"/> </symbol><symbol viewBox="0 0 13 14" id="icon-quote-left"><title>quote-left</title> <path d="M6 7.5v3q0 0.625-0.438 1.062t-1.062 0.438h-3q-0.625 0-1.062-0.438t-0.438-1.062v-5.5q0-0.813 0.316-1.551t0.855-1.277 1.277-0.855 1.551-0.316h0.5q0.203 0 0.352 0.148t0.148 0.352v1q0 0.203-0.148 0.352t-0.352 0.148h-0.5q-0.828 0-1.414 0.586t-0.586 1.414v0.25q0 0.312 0.219 0.531t0.531 0.219h1.75q0.625 0 1.062 0.438t0.438 1.062zM13 7.5v3q0 0.625-0.438 1.062t-1.062 0.438h-3q-0.625 0-1.062-0.438t-0.438-1.062v-5.5q0-0.813 0.316-1.551t0.855-1.277 1.277-0.855 1.551-0.316h0.5q0.203 0 0.352 0.148t0.148 0.352v1q0 0.203-0.148 0.352t-0.352 0.148h-0.5q-0.828 0-1.414 0.586t-0.586 1.414v0.25q0 0.312 0.219 0.531t0.531 0.219h1.75q0.625 0 1.062 0.438t0.438 1.062z"/> </symbol><symbol viewBox="0 0 13 14" id="icon-quote-right"><title>quote-right</title> <path d="M6 2.5v5.5q0 0.813-0.316 1.551t-0.855 1.277-1.277 0.855-1.551 0.316h-0.5q-0.203 0-0.352-0.148t-0.148-0.352v-1q0-0.203 0.148-0.352t0.352-0.148h0.5q0.828 0 1.414-0.586t0.586-1.414v-0.25q0-0.312-0.219-0.531t-0.531-0.219h-1.75q-0.625 0-1.062-0.438t-0.438-1.062v-3q0-0.625 0.438-1.062t1.062-0.438h3q0.625 0 1.062 0.438t0.438 1.062zM13 2.5v5.5q0 0.813-0.316 1.551t-0.855 1.277-1.277 0.855-1.551 0.316h-0.5q-0.203 0-0.352-0.148t-0.148-0.352v-1q0-0.203 0.148-0.352t0.352-0.148h0.5q0.828 0 1.414-0.586t0.586-1.414v-0.25q0-0.312-0.219-0.531t-0.531-0.219h-1.75q-0.625 0-1.062-0.438t-0.438-1.062v-3q0-0.625 0.438-1.062t1.062-0.438h3q0.625 0 1.062 0.438t0.438 1.062z"/> </symbol><symbol viewBox="0 0 16 16" id="icon-quotes-left"><title>quotes-left</title> <path d="M3.516 7c1.933 0 3.5 1.567 3.5 3.5s-1.567 3.5-3.5 3.5-3.5-1.567-3.5-3.5l-0.016-0.5c0-3.866 3.134-7 7-7v2c-1.336 0-2.591 0.52-3.536 1.464-0.182 0.182-0.348 0.375-0.497 0.578 0.179-0.028 0.362-0.043 0.548-0.043zM12.516 7c1.933 0 3.5 1.567 3.5 3.5s-1.567 3.5-3.5 3.5-3.5-1.567-3.5-3.5l-0.016-0.5c0-3.866 3.134-7 7-7v2c-1.336 0-2.591 0.52-3.536 1.464-0.182 0.182-0.348 0.375-0.497 0.578 0.179-0.028 0.362-0.043 0.549-0.043z"/> </symbol><symbol viewBox="0 0 16 16" id="icon-quotes-right"><title>quotes-right</title> <path d="M12.5 10c-1.933 0-3.5-1.567-3.5-3.5s1.567-3.5 3.5-3.5 3.5 1.567 3.5 3.5l0.016 0.5c0 3.866-3.134 7-7 7v-2c1.336 0 2.591-0.52 3.536-1.464 0.182-0.182 0.348-0.375 0.497-0.578-0.179 0.028-0.362 0.043-0.549 0.043zM3.5 10c-1.933 0-3.5-1.567-3.5-3.5s1.567-3.5 3.5-3.5 3.5 1.567 3.5 3.5l0.016 0.5c0 3.866-3.134 7-7 7v-2c1.336 0 2.591-0.52 3.536-1.464 0.182-0.182 0.348-0.375 0.497-0.578-0.179 0.028-0.362 0.043-0.549 0.043z"/> </symbol><symbol viewBox="0 0 16 16" id="icon-rocket"><title>rocket</title> <path d="M11 1l-5 5h-3l-3 4c0 0 3.178-0.885 5.032-0.47l-5.032 6.47 6.592-5.127c0.919 2.104-0.592 5.127-0.592 5.127l4-3v-3l5-5 1-5-5 1z"/> </symbol><symbol viewBox="0 0 16 16" id="icon-shield"><title>shield</title> <path d="M15 0l-7 2-7-2c0 0-0.070 0.808 0 2l7 2.189 7-2.189c0.070-1.192 0-2 0-2zM1.128 3.049c0.375 3.917 1.773 10.504 6.872 12.951 5.099-2.448 6.497-9.034 6.872-12.951l-6.872 2.584-6.872-2.584z"/> </symbol><symbol viewBox="0 0 12 14" id="icon-skype"><title>skype</title> <path d="M9.164 8.305q0-0.391-0.152-0.715t-0.379-0.535-0.57-0.383-0.645-0.266-0.684-0.18l-0.813-0.187q-0.234-0.055-0.344-0.082t-0.273-0.090-0.234-0.125-0.129-0.164-0.059-0.234q0-0.602 1.125-0.602 0.336 0 0.602 0.094t0.422 0.223 0.297 0.262 0.312 0.227 0.375 0.094q0.367 0 0.59-0.25t0.223-0.602q0-0.43-0.438-0.777t-1.109-0.527-1.422-0.18q-0.531 0-1.031 0.121t-0.934 0.367-0.695 0.68-0.262 1.004q0 0.477 0.148 0.832t0.438 0.59 0.625 0.379 0.805 0.254l1.141 0.281q0.703 0.172 0.875 0.281 0.25 0.156 0.25 0.469 0 0.305-0.312 0.504t-0.82 0.199q-0.398 0-0.715-0.125t-0.508-0.301-0.355-0.352-0.359-0.301-0.422-0.125q-0.391 0-0.59 0.234t-0.199 0.586q0 0.719 0.953 1.23t2.273 0.512q0.57 0 1.094-0.145t0.957-0.418 0.691-0.73 0.258-1.027zM12 10q0 1.242-0.879 2.121t-2.121 0.879q-1.016 0-1.828-0.625-0.602 0.125-1.172 0.125-1.117 0-2.137-0.434t-1.758-1.172-1.172-1.758-0.434-2.137q0-0.57 0.125-1.172-0.625-0.813-0.625-1.828 0-1.242 0.879-2.121t2.121-0.879q1.016 0 1.828 0.625 0.602-0.125 1.172-0.125 1.117 0 2.137 0.434t1.758 1.172 1.172 1.758 0.434 2.137q0 0.57-0.125 1.172 0.625 0.813 0.625 1.828z"/> </symbol><symbol viewBox="0 0 16 16" id="icon-sphere"><title>sphere</title> <path d="M7.5 1c-4.142 0-7.5 3.358-7.5 7.5s3.358 7.5 7.5 7.5c4.142 0 7.5-3.358 7.5-7.5s-3.358-7.5-7.5-7.5zM11.744 11c0.134-0.632 0.219-1.303 0.246-2h1.991c-0.052 0.691-0.213 1.361-0.479 2h-1.758zM3.256 6c-0.134 0.632-0.219 1.303-0.246 2h-1.991c0.052-0.691 0.213-1.361 0.479-2h1.758zM10.719 6c0.15 0.64 0.241 1.31 0.27 2h-2.989v-2h2.719zM8 5v-2.927c0.228 0.066 0.454 0.178 0.675 0.334 0.415 0.293 0.813 0.744 1.149 1.304 0.233 0.388 0.434 0.819 0.601 1.289h-2.426zM5.176 3.711c0.336-0.561 0.734-1.012 1.149-1.304 0.222-0.156 0.447-0.268 0.675-0.334v2.927h-2.426c0.168-0.47 0.369-0.901 0.601-1.289zM7 6v2h-2.989c0.029-0.69 0.12-1.36 0.27-2h2.719zM1.498 11c-0.266-0.639-0.427-1.309-0.479-2h1.991c0.028 0.697 0.112 1.368 0.246 2h-1.758zM4.011 9h2.989v2h-2.719c-0.15-0.64-0.241-1.31-0.27-2zM7 12v2.927c-0.228-0.066-0.454-0.178-0.675-0.334-0.415-0.293-0.813-0.744-1.149-1.304-0.233-0.388-0.434-0.819-0.602-1.289h2.426zM9.825 13.289c-0.336 0.561-0.734 1.012-1.149 1.304-0.222 0.156-0.447 0.268-0.675 0.334v-2.927h2.426c-0.168 0.47-0.369 0.901-0.602 1.289zM8 11v-2h2.989c-0.029 0.69-0.12 1.36-0.27 2h-2.719zM11.99 8c-0.028-0.697-0.112-1.368-0.246-2h1.758c0.267 0.639 0.427 1.309 0.479 2h-1.991zM12.979 5h-1.498c-0.291-0.918-0.693-1.723-1.177-2.366 0.665 0.318 1.267 0.744 1.792 1.27 0.336 0.336 0.631 0.702 0.883 1.096zM2.904 3.904c0.526-0.526 1.128-0.952 1.792-1.27-0.483 0.643-0.886 1.448-1.177 2.366h-1.498c0.252-0.394 0.547-0.761 0.883-1.096zM2.021 12h1.498c0.291 0.918 0.693 1.723 1.177 2.366-0.665-0.318-1.267-0.744-1.792-1.27-0.336-0.336-0.631-0.702-0.883-1.096zM12.096 13.096c-0.526 0.526-1.128 0.952-1.792 1.27 0.483-0.643 0.886-1.448 1.177-2.366h1.498c-0.252 0.394-0.547 0.761-0.883 1.096z"/> </symbol><symbol viewBox="0 0 16 16" id="icon-stack"><title>stack</title> <path d="M16 5l-8-4-8 4 8 4 8-4zM8 2.328l5.345 2.672-5.345 2.672-5.345-2.672 5.345-2.672zM14.398 7.199l1.602 0.801-8 4-8-4 1.602-0.801 6.398 3.199zM14.398 10.199l1.602 0.801-8 4-8-4 1.602-0.801 6.398 3.199z"/> </symbol><symbol viewBox="0 0 16 16" id="icon-star-empty"><title>star-empty</title> <path d="M16 6.204l-5.528-0.803-2.472-5.009-2.472 5.009-5.528 0.803 4 3.899-0.944 5.505 4.944-2.599 4.944 2.599-0.944-5.505 4-3.899zM8 11.773l-3.492 1.836 0.667-3.888-2.825-2.753 3.904-0.567 1.746-3.537 1.746 3.537 3.904 0.567-2.825 2.753 0.667 3.888-3.492-1.836z"/> </symbol><symbol viewBox="0 0 16 16" id="icon-star-full"><title>star-full</title> <path d="M16 6.204l-5.528-0.803-2.472-5.009-2.472 5.009-5.528 0.803 4 3.899-0.944 5.505 4.944-2.599 4.944 2.599-0.944-5.505 4-3.899z"/> </symbol><symbol viewBox="0 0 13 14" id="icon-star-o"><title>star-o</title> <path d="M8.883 7.844l2.391-2.32-3.297-0.484-1.477-2.984-1.477 2.984-3.297 0.484 2.391 2.32-0.57 3.289 2.953-1.555 2.945 1.555zM13 5.055q0 0.172-0.203 0.375l-2.836 2.766 0.672 3.906q0.008 0.055 0.008 0.156 0 0.391-0.32 0.391-0.148 0-0.312-0.094l-3.508-1.844-3.508 1.844q-0.172 0.094-0.312 0.094-0.164 0-0.246-0.113t-0.082-0.277q0-0.047 0.016-0.156l0.672-3.906-2.844-2.766q-0.195-0.211-0.195-0.375 0-0.289 0.438-0.359l3.922-0.57 1.758-3.555q0.148-0.32 0.383-0.32t0.383 0.32l1.758 3.555 3.922 0.57q0.438 0.070 0.438 0.359z"/> </symbol><symbol viewBox="0 0 13 14" id="icon-star"><title>star</title> <path d="M13 5.055q0 0.172-0.203 0.375l-2.836 2.766 0.672 3.906q0.008 0.055 0.008 0.156 0 0.164-0.082 0.277t-0.238 0.113q-0.148 0-0.312-0.094l-3.508-1.844-3.508 1.844q-0.172 0.094-0.312 0.094-0.164 0-0.246-0.113t-0.082-0.277q0-0.047 0.016-0.156l0.672-3.906-2.844-2.766q-0.195-0.211-0.195-0.375 0-0.289 0.438-0.359l3.922-0.57 1.758-3.555q0.148-0.32 0.383-0.32t0.383 0.32l1.758 3.555 3.922 0.57q0.438 0.070 0.438 0.359z"/> </symbol><symbol viewBox="0 0 8 14" id="icon-tint"><title>tint</title> <path d="M4 9q0-0.281-0.156-0.539-0.008-0.008-0.121-0.176t-0.199-0.297-0.195-0.344-0.164-0.395q-0.031-0.125-0.164-0.125t-0.164 0.125q-0.055 0.18-0.164 0.395t-0.195 0.344-0.199 0.297-0.121 0.176q-0.156 0.258-0.156 0.539 0 0.414 0.293 0.707t0.707 0.293 0.707-0.293 0.293-0.707zM8 8q0 1.656-1.172 2.828t-2.828 1.172-2.828-1.172-1.172-2.828q0-1.133 0.633-2.148 0.047-0.070 0.488-0.707t0.789-1.18 0.777-1.391 0.648-1.574q0.070-0.234 0.266-0.367t0.398-0.133 0.402 0.133 0.262 0.367q0.219 0.727 0.648 1.574t0.777 1.391 0.789 1.18 0.488 0.707q0.633 0.992 0.633 2.148z"/> </symbol><symbol viewBox="0 0 16 16" id="icon-tree"><title>tree</title> <path d="M15.25 12h-0.25v-3.25c0-0.965-0.785-1.75-1.75-1.75h-4.25v-2h0.25c0.412 0 0.75-0.338 0.75-0.75v-2.5c0-0.413-0.338-0.75-0.75-0.75h-2.5c-0.412 0-0.75 0.337-0.75 0.75v2.5c0 0.412 0.338 0.75 0.75 0.75h0.25v2h-4.25c-0.965 0-1.75 0.785-1.75 1.75v3.25h-0.25c-0.412 0-0.75 0.338-0.75 0.75v2.5c0 0.412 0.338 0.75 0.75 0.75h2.5c0.413 0 0.75-0.338 0.75-0.75v-2.5c0-0.412-0.337-0.75-0.75-0.75h-0.25v-3h4v3h-0.25c-0.412 0-0.75 0.338-0.75 0.75v2.5c0 0.412 0.338 0.75 0.75 0.75h2.5c0.412 0 0.75-0.338 0.75-0.75v-2.5c0-0.412-0.338-0.75-0.75-0.75h-0.25v-3h4v3h-0.25c-0.412 0-0.75 0.338-0.75 0.75v2.5c0 0.412 0.338 0.75 0.75 0.75h2.5c0.412 0 0.75-0.338 0.75-0.75v-2.5c0-0.412-0.338-0.75-0.75-0.75zM3 15h-2v-2h2v2zM9 15h-2v-2h2v2zM7 4v-2h2v2h-2zM15 15h-2v-2h2v2z"/> </symbol><symbol viewBox="0 0 16 16" id="icon-trophy copy"><title>trophy copy</title> <path d="M13 3v-2h-10v2h-3v2c0 1.657 1.343 3 3 3 0.314 0 0.616-0.048 0.9-0.138 0.721 1.031 1.822 1.778 3.1 2.037v3.1h-1c-1.105 0-2 0.895-2 2h8c0-1.105-0.895-2-2-2h-1v-3.1c1.278-0.259 2.378-1.006 3.1-2.037 0.284 0.089 0.587 0.138 0.9 0.138 1.657 0 3-1.343 3-3v-2h-3zM3 6.813c-0.999 0-1.813-0.813-1.813-1.813v-1h1.813v1c0 0.628 0.116 1.229 0.327 1.782-0.106 0.019-0.216 0.030-0.327 0.030zM14.813 5c0 0.999-0.813 1.813-1.813 1.813-0.112 0-0.221-0.011-0.327-0.030 0.211-0.554 0.327-1.154 0.327-1.782v-1h1.813v1z"/> </symbol><symbol viewBox="0 0 13 14" id="icon-trophy"><title>trophy</title> <path d="M3.578 6.898q-0.578-1.266-0.578-2.898h-2v0.75q0 0.609 0.738 1.266t1.84 0.883zM12 4.75v-0.75h-2q0 1.633-0.578 2.898 1.102-0.227 1.84-0.883t0.738-1.266zM13 3.75v1q0 0.555-0.324 1.117t-0.875 1.016-1.352 0.762-1.684 0.348q-0.328 0.422-0.742 0.742-0.297 0.266-0.41 0.566t-0.113 0.699q0 0.422 0.238 0.711t0.762 0.289q0.586 0 1.043 0.355t0.457 0.895v0.5q0 0.109-0.070 0.18t-0.18 0.070h-6.5q-0.109 0-0.18-0.070t-0.070-0.18v-0.5q0-0.539 0.457-0.895t1.043-0.355q0.523 0 0.762-0.289t0.238-0.711q0-0.398-0.113-0.699t-0.41-0.566q-0.414-0.32-0.742-0.742-0.883-0.039-1.684-0.348t-1.352-0.762-0.875-1.016-0.324-1.117v-1q0-0.312 0.219-0.531t0.531-0.219h2.25v-0.75q0-0.516 0.367-0.883t0.883-0.367h4.5q0.516 0 0.883 0.367t0.367 0.883v0.75h2.25q0.312 0 0.531 0.219t0.219 0.531z"/> </symbol><symbol viewBox="0 0 13 14" id="icon-twitter"><title>twitter</title> <path d="M12.656 3.188q-0.523 0.766-1.266 1.305 0.008 0.109 0.008 0.328 0 1.016-0.297 2.027t-0.902 1.941-1.441 1.645-2.016 1.141-2.523 0.426q-2.117 0-3.875-1.133 0.273 0.031 0.609 0.031 1.758 0 3.133-1.078-0.82-0.016-1.469-0.504t-0.891-1.246q0.258 0.039 0.477 0.039 0.336 0 0.664-0.086-0.875-0.18-1.449-0.871t-0.574-1.605v-0.031q0.531 0.297 1.141 0.32-0.516-0.344-0.82-0.898t-0.305-1.203q0-0.688 0.344-1.273 0.945 1.164 2.301 1.863t2.902 0.777q-0.062-0.297-0.062-0.578 0-1.047 0.738-1.785t1.785-0.738q1.094 0 1.844 0.797 0.852-0.164 1.602-0.609-0.289 0.898-1.109 1.391 0.727-0.078 1.453-0.391z"/> </symbol><symbol viewBox="0 0 11 14" id="icon-user-md"><title>user-md</title> <path d="M3 10.5q0 0.203-0.148 0.352t-0.352 0.148-0.352-0.148-0.148-0.352 0.148-0.352 0.352-0.148 0.352 0.148 0.148 0.352zM11 10.977q0 0.945-0.57 1.484t-1.516 0.539h-6.828q-0.945 0-1.516-0.539t-0.57-1.484q0-0.531 0.043-1.023t0.187-1.078 0.371-1.035 0.633-0.805 0.937-0.473q-0.172 0.406-0.172 0.937v1.586q-0.453 0.156-0.727 0.547t-0.273 0.867q0 0.625 0.438 1.062t1.062 0.438 1.062-0.438 0.438-1.062q0-0.477-0.277-0.867t-0.723-0.547v-1.586q0-0.484 0.195-0.727 1.031 0.813 2.305 0.813t2.305-0.813q0.195 0.242 0.195 0.727v0.5q-0.828 0-1.414 0.586t-0.586 1.414v0.695q-0.25 0.227-0.25 0.555 0 0.312 0.219 0.531t0.531 0.219 0.531-0.219 0.219-0.531q0-0.328-0.25-0.555v-0.695q0-0.406 0.297-0.703t0.703-0.297 0.703 0.297 0.297 0.703v0.695q-0.25 0.227-0.25 0.555 0 0.312 0.219 0.531t0.531 0.219 0.531-0.219 0.219-0.531q0-0.328-0.25-0.555v-0.695q0-0.531-0.27-0.996t-0.73-0.73q0-0.078 0.004-0.332t0-0.375-0.020-0.324-0.055-0.367-0.102-0.312q0.531 0.117 0.937 0.473t0.633 0.805 0.371 1.035 0.187 1.078 0.043 1.023zM8.5 4q0 1.242-0.879 2.121t-2.121 0.879-2.121-0.879-0.879-2.121 0.879-2.121 2.121-0.879 2.121 0.879 0.879 2.121z"/> </symbol><symbol viewBox="0 0 11 14" id="icon-user"><title>user</title> <path d="M11 10.977q0 0.937-0.57 1.48t-1.516 0.543h-6.828q-0.945 0-1.516-0.543t-0.57-1.48q0-0.414 0.027-0.809t0.109-0.852 0.207-0.848 0.336-0.762 0.484-0.633 0.668-0.418 0.871-0.156q0.070 0 0.328 0.168t0.582 0.375 0.844 0.375 1.043 0.168 1.043-0.168 0.844-0.375 0.582-0.375 0.328-0.168q0.477 0 0.871 0.156t0.668 0.418 0.484 0.633 0.336 0.762 0.207 0.848 0.109 0.852 0.027 0.809zM8.5 4q0 1.242-0.879 2.121t-2.121 0.879-2.121-0.879-0.879-2.121 0.879-2.121 2.121-0.879 2.121 0.879 0.879 2.121z"/> </symbol><symbol viewBox="0 0 12 14" id="icon-youtube"><title>youtube</title> <path d="M7.586 9.719v1.648q0 0.523-0.305 0.523-0.18 0-0.352-0.172v-2.352q0.172-0.172 0.352-0.172 0.305 0 0.305 0.523zM10.227 9.727v0.359h-0.703v-0.359q0-0.531 0.352-0.531t0.352 0.531zM2.68 8.023h0.836v-0.734h-2.438v0.734h0.82v4.445h0.781v-4.445zM4.93 12.469h0.695v-3.859h-0.695v2.953q-0.234 0.328-0.445 0.328-0.141 0-0.164-0.164-0.008-0.023-0.008-0.273v-2.844h-0.695v3.055q0 0.383 0.062 0.57 0.094 0.289 0.453 0.289 0.375 0 0.797-0.477v0.422zM8.281 11.313v-1.539q0-0.57-0.070-0.773-0.133-0.438-0.555-0.438-0.391 0-0.727 0.422v-1.695h-0.695v5.18h0.695v-0.375q0.352 0.43 0.727 0.43 0.422 0 0.555-0.43 0.070-0.211 0.070-0.781zM10.922 11.234v-0.102h-0.711q0 0.398-0.016 0.477-0.055 0.281-0.312 0.281-0.359 0-0.359-0.539v-0.68h1.398v-0.805q0-0.617-0.211-0.906-0.305-0.398-0.828-0.398-0.531 0-0.836 0.398-0.219 0.289-0.219 0.906v1.352q0 0.617 0.227 0.906 0.305 0.398 0.844 0.398 0.563 0 0.844-0.414 0.141-0.211 0.164-0.422 0.016-0.070 0.016-0.453zM6.172 4.102v-1.641q0-0.539-0.336-0.539t-0.336 0.539v1.641q0 0.547 0.336 0.547t0.336-0.547zM11.789 9.969q0 1.828-0.203 2.734-0.109 0.461-0.453 0.773t-0.797 0.359q-1.438 0.164-4.336 0.164t-4.336-0.164q-0.453-0.047-0.801-0.359t-0.449-0.773q-0.203-0.875-0.203-2.734 0-1.828 0.203-2.734 0.109-0.461 0.453-0.773t0.805-0.367q1.43-0.156 4.328-0.156t4.336 0.156q0.453 0.055 0.801 0.367t0.449 0.773q0.203 0.875 0.203 2.734zM3.992 0h0.797l-0.945 3.117v2.117h-0.781v-2.117q-0.109-0.578-0.477-1.656-0.289-0.805-0.508-1.461h0.828l0.555 2.055zM6.883 2.602v1.367q0 0.633-0.219 0.922-0.289 0.398-0.828 0.398-0.523 0-0.82-0.398-0.219-0.297-0.219-0.922v-1.367q0-0.625 0.219-0.914 0.297-0.398 0.82-0.398 0.539 0 0.828 0.398 0.219 0.289 0.219 0.914zM9.5 1.336v3.898h-0.711v-0.43q-0.414 0.484-0.805 0.484-0.359 0-0.461-0.289-0.062-0.187-0.062-0.586v-3.078h0.711v2.867q0 0.258 0.008 0.273 0.023 0.172 0.164 0.172 0.211 0 0.445-0.336v-2.977h0.711z"/> </symbol></svg>