<svg xmlns="http://www.w3.org/2000/svg" width="16" height="16" viewBox="0 0 16 16"><path fill="red" d="M8 3c-.858 0-1.687.135-2.464.402-.73.25-1.38.605-1.932 1.054C2.57 5.296 2 6.378 2 7.5c0 .63.175 1.24.52 1.815.356.592.89 1.134 1.547 1.566.474.313.793.813.878 1.374.028.187.046.376.053.564.117-.097.23-.2.342-.312.377-.377.887-.586 1.414-.586.084 0 .168.005.252.016.328.042.662.063.995.063.86 0 1.688-.136 2.465-.403.73-.25 1.38-.605 1.932-1.054C13.432 9.703 14 8.62 14 7.5s-.57-2.204-1.603-3.045c-.552-.448-1.202-.803-1.932-1.054C9.688 3.135 8.86 3 8 3zm0-2c4.418 0 8 2.91 8 6.5S12.418 14 8 14c-.424 0-.84-.027-1.247-.08C5.035 15.64 2.983 15.95 1 15.994v-.42c1.07-.526 2-1.48 2-2.573 0-.152-.012-.302-.034-.448C1.156 11.36 0 9.54 0 7.5 0 3.91 3.582 1 8 1z"/></svg>