<svg xmlns="http://www.w3.org/2000/svg" width="18" height="16" viewBox="0 0 18 16"><path fill="red" d="M17 14.08c0 .712.407 1.328 1 1.63v.248c-.166.023-.335.035-.508.035-1.063 0-2.02-.446-2.7-1.16-.41.11-.843.168-1.292.168-2.485 0-4.5-1.79-4.5-4s2.015-4 4.5-4S18 8.793 18 11c0 .866-.31 1.666-.834 2.32-.107.233-.166.49-.166.762zM3.604 3.457C2.57 4.296 2 5.378 2 6.5c0 .63.175 1.24.52 1.815.356.592.89 1.134 1.547 1.566.474.313.793.813.878 1.374.028.187.046.376.053.564.117-.097.23-.2.342-.312.377-.377.887-.586 1.414-.586.084 0 .168.005.252.016.327.042.662.063.994.063v2c-.424 0-.84-.028-1.246-.08-1.718 1.718-3.77 2.027-5.753 2.072v-.42c1.072-.526 2-1.48 2-2.573 0-.153-.01-.303-.033-.45C1.157 10.36 0 8.54 0 6.5 0 2.91 3.584 0 8 0 12.353 0 15.89 2.82 16 6.334c-.642-.286-1.34-.46-2.067-.51-.18-.875-.708-1.7-1.534-2.37-.552-.448-1.202-.803-1.932-1.054C9.687 2.135 8.858 2 8 2s-1.687.134-2.464.4c-.73.252-1.38.606-1.932 1.055z"/></svg>