<svg xmlns="http://www.w3.org/2000/svg" width="18" height="16" viewBox="0 0 18 16"><path fill="red" d="M7.5 2c-.792 0-1.556.124-2.272.37-.67.23-1.267.553-1.773.962C2.517 4.092 2 5.062 2 6.07c0 .56.157 1.108.467 1.622.323.537.81 1.028 1.41 1.42.476.313.796.813.88 1.375.015.094.026.188.035.282.043-.04.085-.08.127-.123.376-.376.885-.583 1.41-.583.084 0 .167.005.25.016.304.038.612.058.92.058.79 0 1.555-.124 2.27-.37.672-.23 1.268-.553 1.775-.962C12.483 8.046 13 7.076 13 6.07s-.517-1.98-1.455-2.738c-.506-.41-1.103-.734-1.774-.963C9.056 2.123 8.29 2 7.5 2zm0-2C11.642 0 15 2.717 15 6.07s-3.358 6.068-7.5 6.068c-.398 0-.788-.025-1.17-.074C4.72 13.67 2.86 13.956 1 14v-.394c1.004-.49 1.813-1.382 1.813-2.402 0-.142-.01-.282-.032-.42C1.086 9.673 0 7.975 0 6.07c0-3.352 3.358-6.07 7.5-6.07zm8.063 13.604c0 .874.567 1.64 1.438 2.06V16c-1.61-.036-3.09-.283-4.486-1.658-.33.04-.67.063-1.013.063-1.49 0-2.865-.402-3.962-1.08 2.26-.007 4.395-.73 6.013-2.04.817-.66 1.46-1.436 1.914-2.303.48-.92.724-1.9.724-2.913 0-.164-.007-.327-.02-.488C17.302 6.518 18 7.795 18 9.202c0 1.633-.94 3.09-2.41 4.043-.018.117-.027.237-.027.36z"/></svg>