<svg xmlns="http://www.w3.org/2000/svg" width="16" height="16" viewBox="0 0 16 16"><path fill="red" d="M8 0C3.582 0 0 3.582 0 8s3.582 8 8 8 8-3.582 8-8-3.582-8-8-8zm0 15c-.984 0-1.92-.203-2.77-.57l3.644-4.098c.08-.092.126-.21.126-.332V8.5c0-.276-.224-.5-.5-.5-1.765 0-3.628-1.835-3.646-1.854C4.76 6.052 4.634 6 4.5 6h-2c-.276 0-.5.224-.5.5v3c0 .19.107.363.276.447L4 10.81v2.935C2.187 12.48 1 10.38 1 8c0-1.074.242-2.09.674-3H3.5c.133 0 .26-.053.354-.146l2-2C5.948 2.76 6 2.634 6 2.5V1.29C6.634 1.1 7.305 1 8 1c1.1 0 2.14.254 3.067.706-.065.055-.128.112-.188.172-.568.567-.88 1.32-.88 2.12s.312 1.556.88 2.122c.568.57 1.33.88 2.118.88.05 0 .1-.002.15-.005.215.81.604 2.917-.132 5.818-.007.027-.01.055-.013.082C11.733 14.193 9.96 15 8 15z"/></svg>