<svg xmlns="http://www.w3.org/2000/svg" width="16" height="16" viewBox="0 0 16 16"><path fill="red" d="M8 16c4.418 0 8-3.582 8-8s-3.582-8-8-8-8 3.582-8 8 3.582 8 8 8zM8 1.5c3.59 0 6.5 2.91 6.5 6.5s-2.91 6.5-6.5 6.5S1.5 11.59 1.5 8 4.41 1.5 8 1.5zm0 7.856c1.812 0 3.535-.48 5-1.327-.228 2.787-2.393 4.97-5 4.97s-4.772-2.186-5-4.973c1.465.845 3.188 1.33 5 1.33zM4 5.5C4 4.672 4.448 4 5 4s1 .672 1 1.5S5.552 7 5 7s-1-.672-1-1.5zm6 0c0-.828.448-1.5 1-1.5s1 .672 1 1.5S11.552 7 11 7s-1-.672-1-1.5z"/></svg>