<svg xmlns="http://www.w3.org/2000/svg" width="16" height="16" viewBox="0 0 16 16"><path fill="red" d="M7.5 1C3.358 1 0 4.358 0 8.5S3.358 16 7.5 16c4.142 0 7.5-3.358 7.5-7.5S11.642 1 7.5 1zm4.244 10c.134-.632.22-1.303.246-2h1.99c-.05.69-.212 1.36-.478 2h-1.758zM3.256 6c-.134.632-.22 1.303-.246 2H1.02c.05-.69.212-1.36.478-2h1.758zm7.463 0c.15.64.24 1.31.27 2H8V6h2.72zM8 5V2.073c.228.066.454.178.675.334.415.293.813.744 1.15 1.304.232.39.433.82.6 1.29H8zM5.176 3.71c.336-.56.734-1.01 1.15-1.303.22-.156.446-.268.674-.334V5H4.574c.168-.47.37-.9.6-1.29zM7 6v2H4.01c.03-.69.12-1.36.27-2H7zm-5.502 5c-.266-.64-.427-1.31-.48-2H3.01c.028.697.112 1.368.246 2H1.498zM4.01 9H7v2H4.28c-.15-.64-.24-1.31-.27-2zM7 12v2.927c-.228-.066-.454-.178-.675-.334-.415-.293-.813-.744-1.15-1.304-.232-.39-.433-.82-.6-1.29H7zm2.825 1.29c-.336.56-.734 1.01-1.15 1.303-.22.156-.446.268-.674.334V12h2.427c-.168.47-.37.9-.602 1.29zM8 11V9h2.99c-.03.69-.12 1.36-.27 2H8zm3.99-3c-.028-.697-.112-1.368-.246-2h1.758c.267.64.427 1.31.48 2H11.99zm.99-3h-1.5c-.29-.918-.692-1.723-1.176-2.366.665.318 1.267.744 1.792 1.27.336.336.63.702.883 1.096zM2.903 3.904c.526-.526 1.128-.952 1.792-1.27C4.213 3.277 3.81 4.082 3.52 5h-1.5c.253-.394.548-.76.884-1.096zM2.02 12h1.5c.29.918.692 1.723 1.176 2.366-.665-.318-1.267-.744-1.792-1.27-.336-.336-.63-.702-.883-1.096zm10.076 1.096c-.526.526-1.128.952-1.792 1.27.483-.643.886-1.448 1.177-2.366h1.5c-.253.394-.548.76-.884 1.096z"/></svg>